<svg width="316" height="453" viewBox="0 0 316 453" fill="none" xmlns="http://www.w3.org/2000/svg">
<rect width="316" height="453" rx="15" fill="#009699"/>
<path d="M167.536 226C167.536 220.477 172.013 216 177.536 216H316V268H177.536C172.013 268 167.536 263.523 167.536 258V226Z" fill="#2E1452" fill-opacity="0.2"/>
<path d="M167.536 294C167.536 288.477 172.013 284 177.536 284H316V336H177.536C172.013 336 167.536 331.523 167.536 326V294Z" fill="#2E1452" fill-opacity="0.2"/>
<path d="M0 148H128C133.523 148 138 152.477 138 158V190C138 195.523 133.523 200 128 200H0V148Z" fill="#2E1452" fill-opacity="0.2"/>
<path d="M0 216H128C133.523 216 138 220.477 138 226V258C138 263.523 133.523 268 128 268H0V216Z" fill="#2E1452" fill-opacity="0.2"/>
<path d="M0 284H128C133.523 284 138 288.477 138 294V326C138 331.523 133.523 336 128 336H0V284Z" fill="#2E1452" fill-opacity="0.2"/>
<path d="M167.536 158C167.536 152.477 172.013 148 177.536 148H316V200H177.536C172.013 200 167.536 195.523 167.536 190V158Z" fill="#2E1452" fill-opacity="0.2"/>
<path d="M0.920455 247V245.557L5.19318 240.267V240.205H1.06818V238.273H8.10795V239.847L4.09659 245.006V245.068H8.25568V247H0.920455ZM13.0724 247.142C12.4096 247.142 11.8092 246.972 11.2713 246.631C10.7372 246.286 10.313 245.78 9.99858 245.114C9.68797 244.443 9.53267 243.621 9.53267 242.648C9.53267 241.648 9.69366 240.816 10.0156 240.153C10.3376 239.487 10.7656 238.989 11.2997 238.659C11.8376 238.326 12.4266 238.159 13.0668 238.159C13.5554 238.159 13.9626 238.242 14.2884 238.409C14.6179 238.572 14.883 238.777 15.0838 239.023C15.2884 239.265 15.4437 239.504 15.5497 239.739H15.6236V235.364H18.0384V247H15.652V245.602H15.5497C15.4361 245.845 15.2751 246.085 15.0668 246.324C14.8622 246.559 14.5952 246.754 14.2656 246.909C13.9399 247.064 13.5421 247.142 13.0724 247.142ZM13.8395 245.216C14.2296 245.216 14.5592 245.11 14.8281 244.898C15.1009 244.682 15.3092 244.381 15.4531 243.994C15.6009 243.608 15.6747 243.155 15.6747 242.636C15.6747 242.117 15.6027 241.667 15.4588 241.284C15.3149 240.902 15.1065 240.606 14.8338 240.398C14.5611 240.189 14.2296 240.085 13.8395 240.085C13.4418 240.085 13.1065 240.193 12.8338 240.409C12.5611 240.625 12.3546 240.924 12.2145 241.307C12.0743 241.689 12.0043 242.133 12.0043 242.636C12.0043 243.144 12.0743 243.593 12.2145 243.983C12.3584 244.369 12.5649 244.672 12.8338 244.892C13.1065 245.108 13.4418 245.216 13.8395 245.216ZM27.6477 250.352C26.4394 250.352 25.3636 250.188 24.4205 249.858C23.4773 249.532 22.6799 249.053 22.0284 248.42C21.3769 247.792 20.8807 247.023 20.5398 246.114C20.1989 245.205 20.0284 244.17 20.0284 243.011C20.0284 241.867 20.1989 240.83 20.5398 239.898C20.8845 238.966 21.3864 238.167 22.0455 237.5C22.7045 236.83 23.5095 236.314 24.4602 235.955C25.4148 235.595 26.5019 235.415 27.7216 235.415C28.8504 235.415 29.858 235.58 30.7443 235.909C31.6345 236.239 32.3883 236.708 33.0057 237.318C33.6269 237.924 34.0985 238.646 34.4205 239.483C34.7462 240.316 34.9072 241.239 34.9034 242.25C34.9072 242.947 34.8466 243.587 34.7216 244.17C34.5966 244.754 34.3996 245.263 34.1307 245.699C33.8655 246.131 33.517 246.473 33.0852 246.727C32.6534 246.977 32.1307 247.119 31.517 247.153C31.0777 247.188 30.7216 247.155 30.4489 247.057C30.1761 246.958 29.9678 246.812 29.8239 246.619C29.6837 246.422 29.5928 246.193 29.5511 245.932H29.483C29.392 246.159 29.214 246.366 28.9489 246.551C28.6837 246.733 28.3598 246.875 27.9773 246.977C27.5985 247.076 27.1951 247.112 26.767 247.085C26.3201 247.059 25.8958 246.955 25.4943 246.773C25.0966 246.591 24.7424 246.328 24.4318 245.983C24.125 245.638 23.8826 245.212 23.7045 244.705C23.5303 244.197 23.4413 243.61 23.4375 242.943C23.4413 242.284 23.5341 241.71 23.7159 241.222C23.9015 240.733 24.1458 240.322 24.4489 239.989C24.7557 239.655 25.0966 239.394 25.4716 239.205C25.8466 239.015 26.2235 238.894 26.6023 238.841C27.0303 238.777 27.4356 238.777 27.8182 238.841C28.2008 238.905 28.5227 239.009 28.7841 239.153C29.0492 239.297 29.214 239.453 29.2784 239.619H29.358V238.983H31.1364V244.528C31.1402 244.79 31.1989 244.992 31.3125 245.136C31.4261 245.28 31.5795 245.352 31.7727 245.352C32.0341 245.352 32.2519 245.237 32.4261 245.006C32.6042 244.775 32.7367 244.42 32.8239 243.943C32.9148 243.466 32.9602 242.858 32.9602 242.119C32.9602 241.407 32.8655 240.782 32.6761 240.244C32.4905 239.703 32.2292 239.242 31.892 238.864C31.5587 238.481 31.1705 238.17 30.7273 237.932C30.2841 237.693 29.803 237.519 29.2841 237.409C28.7689 237.299 28.2386 237.244 27.6932 237.244C26.75 237.244 25.9261 237.388 25.2216 237.676C24.517 237.96 23.9299 238.36 23.4602 238.875C22.9905 239.39 22.6383 239.994 22.4034 240.688C22.1723 241.377 22.0549 242.129 22.0511 242.943C22.0549 243.841 22.1799 244.636 22.4261 245.33C22.6761 246.019 23.0436 246.598 23.5284 247.068C24.0133 247.538 24.6117 247.894 25.3239 248.136C26.036 248.379 26.8542 248.5 27.7784 248.5C28.214 248.5 28.6402 248.468 29.0568 248.403C29.4735 248.343 29.8504 248.267 30.1875 248.176C30.5246 248.089 30.7955 248.004 31 247.92L31.5625 249.568C31.3239 249.705 31 249.831 30.5909 249.949C30.1856 250.07 29.7273 250.167 29.2159 250.239C28.7083 250.314 28.1856 250.352 27.6477 250.352ZM27.3864 245.216C27.8485 245.216 28.2159 245.127 28.4886 244.949C28.7652 244.771 28.9621 244.508 29.0795 244.159C29.2008 243.807 29.2576 243.373 29.25 242.858C29.2462 242.403 29.1875 242.019 29.0739 241.705C28.964 241.386 28.7727 241.146 28.5 240.983C28.2311 240.816 27.8561 240.733 27.375 240.733C26.9545 240.733 26.5966 240.822 26.3011 241C26.0095 241.178 25.786 241.428 25.6307 241.75C25.4792 242.068 25.4015 242.443 25.3977 242.875C25.4015 243.277 25.4659 243.657 25.5909 244.017C25.7159 244.373 25.9223 244.663 26.2102 244.886C26.4981 245.106 26.8902 245.216 27.3864 245.216ZM40.4446 250.455C39.6605 250.455 38.9882 250.347 38.4276 250.131C37.8707 249.919 37.4276 249.629 37.098 249.261C36.7685 248.894 36.5545 248.481 36.456 248.023L38.6946 247.722C38.7628 247.896 38.8707 248.059 39.0185 248.21C39.1662 248.362 39.3613 248.483 39.6037 248.574C39.8499 248.669 40.1491 248.716 40.5014 248.716C41.0279 248.716 41.4616 248.587 41.8026 248.33C42.1473 248.076 42.3196 247.65 42.3196 247.051V245.455H42.2173C42.1113 245.697 41.9522 245.926 41.7401 246.142C41.5279 246.358 41.2552 246.534 40.9219 246.67C40.5885 246.807 40.1908 246.875 39.7287 246.875C39.0734 246.875 38.4768 246.723 37.9389 246.42C37.4048 246.114 36.9787 245.646 36.6605 245.017C36.3461 244.384 36.1889 243.585 36.1889 242.619C36.1889 241.631 36.3499 240.805 36.6719 240.142C36.9938 239.479 37.4219 238.983 37.956 238.653C38.4938 238.324 39.0829 238.159 39.723 238.159C40.2116 238.159 40.6207 238.242 40.9503 238.409C41.2798 238.572 41.545 238.777 41.7457 239.023C41.9503 239.265 42.1075 239.504 42.2173 239.739H42.3082V238.273H44.7116V247.085C44.7116 247.828 44.5298 248.449 44.1662 248.949C43.8026 249.449 43.2988 249.824 42.6548 250.074C42.0147 250.328 41.2779 250.455 40.4446 250.455ZM40.4957 245.057C40.8859 245.057 41.2154 244.96 41.4844 244.767C41.7571 244.57 41.9654 244.29 42.1094 243.926C42.2571 243.559 42.331 243.119 42.331 242.608C42.331 242.097 42.259 241.653 42.1151 241.278C41.9711 240.9 41.7628 240.606 41.4901 240.398C41.2173 240.189 40.8859 240.085 40.4957 240.085C40.098 240.085 39.7628 240.193 39.4901 240.409C39.2173 240.621 39.0109 240.917 38.8707 241.295C38.7306 241.674 38.6605 242.112 38.6605 242.608C38.6605 243.112 38.7306 243.547 38.8707 243.915C39.0147 244.278 39.2211 244.561 39.4901 244.761C39.7628 244.958 40.098 245.057 40.4957 245.057ZM46.6378 247V238.273H48.9446V239.812H49.0469C49.2287 239.301 49.5317 238.898 49.956 238.602C50.3802 238.307 50.8878 238.159 51.4787 238.159C52.0772 238.159 52.5866 238.309 53.0071 238.608C53.4276 238.903 53.7079 239.305 53.848 239.812H53.9389C54.117 239.312 54.4389 238.913 54.9048 238.614C55.3745 238.311 55.9295 238.159 56.5696 238.159C57.384 238.159 58.045 238.419 58.5526 238.938C59.0639 239.453 59.3196 240.184 59.3196 241.131V247H56.9048V241.608C56.9048 241.123 56.776 240.759 56.5185 240.517C56.2609 240.275 55.9389 240.153 55.5526 240.153C55.1132 240.153 54.7704 240.294 54.5241 240.574C54.2779 240.85 54.1548 241.216 54.1548 241.67V247H51.8082V241.557C51.8082 241.129 51.6851 240.788 51.4389 240.534C51.1965 240.28 50.8764 240.153 50.4787 240.153C50.2098 240.153 49.9673 240.222 49.7514 240.358C49.5393 240.491 49.3707 240.678 49.2457 240.92C49.1207 241.159 49.0582 241.439 49.0582 241.761V247H46.6378ZM63.7202 247.165C63.1634 247.165 62.6671 247.068 62.2315 246.875C61.7959 246.678 61.4512 246.388 61.1974 246.006C60.9474 245.619 60.8224 245.138 60.8224 244.562C60.8224 244.078 60.9115 243.67 61.0895 243.341C61.2675 243.011 61.5099 242.746 61.8168 242.545C62.1236 242.345 62.4721 242.193 62.8622 242.091C63.2562 241.989 63.669 241.917 64.1009 241.875C64.6084 241.822 65.0175 241.773 65.3281 241.727C65.6387 241.678 65.8641 241.606 66.0043 241.511C66.1444 241.417 66.2145 241.277 66.2145 241.091V241.057C66.2145 240.697 66.1009 240.419 65.8736 240.222C65.6501 240.025 65.3319 239.926 64.919 239.926C64.4834 239.926 64.1368 240.023 63.8793 240.216C63.6217 240.405 63.4512 240.644 63.3679 240.932L61.1293 240.75C61.2429 240.22 61.4664 239.761 61.7997 239.375C62.133 238.985 62.563 238.686 63.0895 238.477C63.6198 238.265 64.2334 238.159 64.9304 238.159C65.4152 238.159 65.8793 238.216 66.3224 238.33C66.7694 238.443 67.1652 238.619 67.5099 238.858C67.8584 239.097 68.133 239.403 68.3338 239.778C68.5346 240.15 68.6349 240.595 68.6349 241.114V247H66.3395V245.79H66.2713C66.1312 246.062 65.9437 246.303 65.7088 246.511C65.474 246.716 65.1918 246.877 64.8622 246.994C64.5327 247.108 64.152 247.165 63.7202 247.165ZM64.4134 245.494C64.7694 245.494 65.0838 245.424 65.3565 245.284C65.6293 245.14 65.8433 244.947 65.9986 244.705C66.1539 244.462 66.2315 244.187 66.2315 243.881V242.955C66.1558 243.004 66.0516 243.049 65.919 243.091C65.7902 243.129 65.6444 243.165 65.4815 243.199C65.3187 243.229 65.1558 243.258 64.9929 243.284C64.83 243.307 64.6823 243.328 64.5497 243.347C64.2656 243.388 64.0175 243.455 63.8054 243.545C63.5933 243.636 63.4285 243.759 63.3111 243.915C63.1937 244.066 63.1349 244.256 63.1349 244.483C63.1349 244.812 63.2543 245.064 63.4929 245.239C63.7353 245.409 64.0421 245.494 64.4134 245.494ZM70.5128 247V238.273H72.9332V247H70.5128ZM71.7287 237.148C71.3688 237.148 71.0601 237.028 70.8026 236.79C70.5488 236.547 70.4219 236.258 70.4219 235.92C70.4219 235.587 70.5488 235.301 70.8026 235.062C71.0601 234.82 71.3688 234.699 71.7287 234.699C72.0885 234.699 72.3954 234.82 72.6491 235.062C72.9067 235.301 73.0355 235.587 73.0355 235.92C73.0355 236.258 72.9067 236.547 72.6491 236.79C72.3954 237.028 72.0885 237.148 71.7287 237.148ZM77.2926 235.364V247H74.8722V235.364H77.2926ZM80.6463 247.148C80.2713 247.148 79.9493 247.015 79.6804 246.75C79.4152 246.481 79.2827 246.159 79.2827 245.784C79.2827 245.413 79.4152 245.095 79.6804 244.83C79.9493 244.564 80.2713 244.432 80.6463 244.432C81.0099 244.432 81.3281 244.564 81.6009 244.83C81.8736 245.095 82.0099 245.413 82.0099 245.784C82.0099 246.034 81.9455 246.263 81.8168 246.472C81.6918 246.676 81.527 246.841 81.3224 246.966C81.1179 247.087 80.8925 247.148 80.6463 247.148ZM87.9403 247.17C87.0464 247.17 86.2775 246.981 85.6335 246.602C84.9934 246.22 84.5009 245.689 84.1562 245.011C83.8153 244.333 83.6449 243.553 83.6449 242.67C83.6449 241.777 83.8172 240.992 84.1619 240.318C84.5104 239.64 85.0047 239.112 85.6449 238.733C86.285 238.35 87.0464 238.159 87.929 238.159C88.6903 238.159 89.357 238.297 89.929 238.574C90.5009 238.85 90.9536 239.239 91.2869 239.739C91.6203 240.239 91.804 240.826 91.8381 241.5H89.554C89.4896 241.064 89.3191 240.714 89.0426 240.449C88.7699 240.18 88.4119 240.045 87.9688 240.045C87.5938 240.045 87.2661 240.148 86.9858 240.352C86.7093 240.553 86.4934 240.847 86.3381 241.233C86.1828 241.619 86.1051 242.087 86.1051 242.636C86.1051 243.193 86.1809 243.667 86.3324 244.057C86.4877 244.447 86.7055 244.744 86.9858 244.949C87.2661 245.153 87.5938 245.256 87.9688 245.256C88.2453 245.256 88.4934 245.199 88.7131 245.085C88.9366 244.972 89.1203 244.807 89.2642 244.591C89.4119 244.371 89.5085 244.108 89.554 243.801H91.8381C91.8002 244.468 91.6184 245.055 91.2926 245.562C90.9706 246.066 90.5256 246.46 89.9574 246.744C89.3892 247.028 88.7169 247.17 87.9403 247.17ZM97.331 247.17C96.4484 247.17 95.6851 246.983 95.0412 246.608C94.401 246.229 93.9067 245.703 93.5582 245.028C93.2098 244.35 93.0355 243.564 93.0355 242.67C93.0355 241.769 93.2098 240.981 93.5582 240.307C93.9067 239.629 94.401 239.102 95.0412 238.727C95.6851 238.348 96.4484 238.159 97.331 238.159C98.2135 238.159 98.9749 238.348 99.6151 238.727C100.259 239.102 100.755 239.629 101.104 240.307C101.452 240.981 101.626 241.769 101.626 242.67C101.626 243.564 101.452 244.35 101.104 245.028C100.755 245.703 100.259 246.229 99.6151 246.608C98.9749 246.983 98.2135 247.17 97.331 247.17ZM97.3423 245.295C97.7438 245.295 98.0791 245.182 98.348 244.955C98.617 244.723 98.8196 244.409 98.956 244.011C99.0961 243.614 99.1662 243.161 99.1662 242.653C99.1662 242.146 99.0961 241.693 98.956 241.295C98.8196 240.898 98.617 240.583 98.348 240.352C98.0791 240.121 97.7438 240.006 97.3423 240.006C96.937 240.006 96.5961 240.121 96.3196 240.352C96.0469 240.583 95.8404 240.898 95.7003 241.295C95.5639 241.693 95.4957 242.146 95.4957 242.653C95.4957 243.161 95.5639 243.614 95.7003 244.011C95.8404 244.409 96.0469 244.723 96.3196 244.955C96.5961 245.182 96.937 245.295 97.3423 245.295ZM103.2 247V238.273H105.507V239.812H105.609C105.791 239.301 106.094 238.898 106.518 238.602C106.943 238.307 107.45 238.159 108.041 238.159C108.64 238.159 109.149 238.309 109.57 238.608C109.99 238.903 110.27 239.305 110.411 239.812H110.501C110.679 239.312 111.001 238.913 111.467 238.614C111.937 238.311 112.492 238.159 113.132 238.159C113.946 238.159 114.607 238.419 115.115 238.938C115.626 239.453 115.882 240.184 115.882 241.131V247H113.467V241.608C113.467 241.123 113.339 240.759 113.081 240.517C112.823 240.275 112.501 240.153 112.115 240.153C111.676 240.153 111.333 240.294 111.087 240.574C110.84 240.85 110.717 241.216 110.717 241.67V247H108.371V241.557C108.371 241.129 108.248 240.788 108.001 240.534C107.759 240.28 107.439 240.153 107.041 240.153C106.772 240.153 106.53 240.222 106.314 240.358C106.102 240.491 105.933 240.678 105.808 240.92C105.683 241.159 105.621 241.439 105.621 241.761V247H103.2Z" fill="#9B9B9B" fill-opacity="0.2"/>
<path d="M0 250.182H116.825V251.273H0V250.182Z" fill="#9B9B9B" fill-opacity="0.2"/>
<a href="mailto:zd@gmail.com">
<rect fill="black" fill-opacity="0" y="-0.181818" width="116.825" height="19.3636"/>
</a>
<path d="M0.920455 315V313.557L5.19318 308.267V308.205H1.06818V306.273H8.10795V307.847L4.09659 313.006V313.068H8.25568V315H0.920455ZM13.0724 315.142C12.4096 315.142 11.8092 314.972 11.2713 314.631C10.7372 314.286 10.313 313.78 9.99858 313.114C9.68797 312.443 9.53267 311.621 9.53267 310.648C9.53267 309.648 9.69366 308.816 10.0156 308.153C10.3376 307.487 10.7656 306.989 11.2997 306.659C11.8376 306.326 12.4266 306.159 13.0668 306.159C13.5554 306.159 13.9626 306.242 14.2884 306.409C14.6179 306.572 14.883 306.777 15.0838 307.023C15.2884 307.265 15.4437 307.504 15.5497 307.739H15.6236V303.364H18.0384V315H15.652V313.602H15.5497C15.4361 313.845 15.2751 314.085 15.0668 314.324C14.8622 314.559 14.5952 314.754 14.2656 314.909C13.9399 315.064 13.5421 315.142 13.0724 315.142ZM13.8395 313.216C14.2296 313.216 14.5592 313.11 14.8281 312.898C15.1009 312.682 15.3092 312.381 15.4531 311.994C15.6009 311.608 15.6747 311.155 15.6747 310.636C15.6747 310.117 15.6027 309.667 15.4588 309.284C15.3149 308.902 15.1065 308.606 14.8338 308.398C14.5611 308.189 14.2296 308.085 13.8395 308.085C13.4418 308.085 13.1065 308.193 12.8338 308.409C12.5611 308.625 12.3546 308.924 12.2145 309.307C12.0743 309.689 12.0043 310.133 12.0043 310.636C12.0043 311.144 12.0743 311.593 12.2145 311.983C12.3584 312.369 12.5649 312.672 12.8338 312.892C13.1065 313.108 13.4418 313.216 13.8395 313.216ZM27.6477 318.352C26.4394 318.352 25.3636 318.188 24.4205 317.858C23.4773 317.532 22.6799 317.053 22.0284 316.42C21.3769 315.792 20.8807 315.023 20.5398 314.114C20.1989 313.205 20.0284 312.17 20.0284 311.011C20.0284 309.867 20.1989 308.83 20.5398 307.898C20.8845 306.966 21.3864 306.167 22.0455 305.5C22.7045 304.83 23.5095 304.314 24.4602 303.955C25.4148 303.595 26.5019 303.415 27.7216 303.415C28.8504 303.415 29.858 303.58 30.7443 303.909C31.6345 304.239 32.3883 304.708 33.0057 305.318C33.6269 305.924 34.0985 306.646 34.4205 307.483C34.7462 308.316 34.9072 309.239 34.9034 310.25C34.9072 310.947 34.8466 311.587 34.7216 312.17C34.5966 312.754 34.3996 313.263 34.1307 313.699C33.8655 314.131 33.517 314.473 33.0852 314.727C32.6534 314.977 32.1307 315.119 31.517 315.153C31.0777 315.188 30.7216 315.155 30.4489 315.057C30.1761 314.958 29.9678 314.812 29.8239 314.619C29.6837 314.422 29.5928 314.193 29.5511 313.932H29.483C29.392 314.159 29.214 314.366 28.9489 314.551C28.6837 314.733 28.3598 314.875 27.9773 314.977C27.5985 315.076 27.1951 315.112 26.767 315.085C26.3201 315.059 25.8958 314.955 25.4943 314.773C25.0966 314.591 24.7424 314.328 24.4318 313.983C24.125 313.638 23.8826 313.212 23.7045 312.705C23.5303 312.197 23.4413 311.61 23.4375 310.943C23.4413 310.284 23.5341 309.71 23.7159 309.222C23.9015 308.733 24.1458 308.322 24.4489 307.989C24.7557 307.655 25.0966 307.394 25.4716 307.205C25.8466 307.015 26.2235 306.894 26.6023 306.841C27.0303 306.777 27.4356 306.777 27.8182 306.841C28.2008 306.905 28.5227 307.009 28.7841 307.153C29.0492 307.297 29.214 307.453 29.2784 307.619H29.358V306.983H31.1364V312.528C31.1402 312.79 31.1989 312.992 31.3125 313.136C31.4261 313.28 31.5795 313.352 31.7727 313.352C32.0341 313.352 32.2519 313.237 32.4261 313.006C32.6042 312.775 32.7367 312.42 32.8239 311.943C32.9148 311.466 32.9602 310.858 32.9602 310.119C32.9602 309.407 32.8655 308.782 32.6761 308.244C32.4905 307.703 32.2292 307.242 31.892 306.864C31.5587 306.481 31.1705 306.17 30.7273 305.932C30.2841 305.693 29.803 305.519 29.2841 305.409C28.7689 305.299 28.2386 305.244 27.6932 305.244C26.75 305.244 25.9261 305.388 25.2216 305.676C24.517 305.96 23.9299 306.36 23.4602 306.875C22.9905 307.39 22.6383 307.994 22.4034 308.688C22.1723 309.377 22.0549 310.129 22.0511 310.943C22.0549 311.841 22.1799 312.636 22.4261 313.33C22.6761 314.019 23.0436 314.598 23.5284 315.068C24.0133 315.538 24.6117 315.894 25.3239 316.136C26.036 316.379 26.8542 316.5 27.7784 316.5C28.214 316.5 28.6402 316.468 29.0568 316.403C29.4735 316.343 29.8504 316.267 30.1875 316.176C30.5246 316.089 30.7955 316.004 31 315.92L31.5625 317.568C31.3239 317.705 31 317.831 30.5909 317.949C30.1856 318.07 29.7273 318.167 29.2159 318.239C28.7083 318.314 28.1856 318.352 27.6477 318.352ZM27.3864 313.216C27.8485 313.216 28.2159 313.127 28.4886 312.949C28.7652 312.771 28.9621 312.508 29.0795 312.159C29.2008 311.807 29.2576 311.373 29.25 310.858C29.2462 310.403 29.1875 310.019 29.0739 309.705C28.964 309.386 28.7727 309.146 28.5 308.983C28.2311 308.816 27.8561 308.733 27.375 308.733C26.9545 308.733 26.5966 308.822 26.3011 309C26.0095 309.178 25.786 309.428 25.6307 309.75C25.4792 310.068 25.4015 310.443 25.3977 310.875C25.4015 311.277 25.4659 311.657 25.5909 312.017C25.7159 312.373 25.9223 312.663 26.2102 312.886C26.4981 313.106 26.8902 313.216 27.3864 313.216ZM40.4446 318.455C39.6605 318.455 38.9882 318.347 38.4276 318.131C37.8707 317.919 37.4276 317.629 37.098 317.261C36.7685 316.894 36.5545 316.481 36.456 316.023L38.6946 315.722C38.7628 315.896 38.8707 316.059 39.0185 316.21C39.1662 316.362 39.3613 316.483 39.6037 316.574C39.8499 316.669 40.1491 316.716 40.5014 316.716C41.0279 316.716 41.4616 316.587 41.8026 316.33C42.1473 316.076 42.3196 315.65 42.3196 315.051V313.455H42.2173C42.1113 313.697 41.9522 313.926 41.7401 314.142C41.5279 314.358 41.2552 314.534 40.9219 314.67C40.5885 314.807 40.1908 314.875 39.7287 314.875C39.0734 314.875 38.4768 314.723 37.9389 314.42C37.4048 314.114 36.9787 313.646 36.6605 313.017C36.3461 312.384 36.1889 311.585 36.1889 310.619C36.1889 309.631 36.3499 308.805 36.6719 308.142C36.9938 307.479 37.4219 306.983 37.956 306.653C38.4938 306.324 39.0829 306.159 39.723 306.159C40.2116 306.159 40.6207 306.242 40.9503 306.409C41.2798 306.572 41.545 306.777 41.7457 307.023C41.9503 307.265 42.1075 307.504 42.2173 307.739H42.3082V306.273H44.7116V315.085C44.7116 315.828 44.5298 316.449 44.1662 316.949C43.8026 317.449 43.2988 317.824 42.6548 318.074C42.0147 318.328 41.2779 318.455 40.4446 318.455ZM40.4957 313.057C40.8859 313.057 41.2154 312.96 41.4844 312.767C41.7571 312.57 41.9654 312.29 42.1094 311.926C42.2571 311.559 42.331 311.119 42.331 310.608C42.331 310.097 42.259 309.653 42.1151 309.278C41.9711 308.9 41.7628 308.606 41.4901 308.398C41.2173 308.189 40.8859 308.085 40.4957 308.085C40.098 308.085 39.7628 308.193 39.4901 308.409C39.2173 308.621 39.0109 308.917 38.8707 309.295C38.7306 309.674 38.6605 310.112 38.6605 310.608C38.6605 311.112 38.7306 311.547 38.8707 311.915C39.0147 312.278 39.2211 312.561 39.4901 312.761C39.7628 312.958 40.098 313.057 40.4957 313.057ZM46.6378 315V306.273H48.9446V307.812H49.0469C49.2287 307.301 49.5317 306.898 49.956 306.602C50.3802 306.307 50.8878 306.159 51.4787 306.159C52.0772 306.159 52.5866 306.309 53.0071 306.608C53.4276 306.903 53.7079 307.305 53.848 307.812H53.9389C54.117 307.312 54.4389 306.913 54.9048 306.614C55.3745 306.311 55.9295 306.159 56.5696 306.159C57.384 306.159 58.045 306.419 58.5526 306.938C59.0639 307.453 59.3196 308.184 59.3196 309.131V315H56.9048V309.608C56.9048 309.123 56.776 308.759 56.5185 308.517C56.2609 308.275 55.9389 308.153 55.5526 308.153C55.1132 308.153 54.7704 308.294 54.5241 308.574C54.2779 308.85 54.1548 309.216 54.1548 309.67V315H51.8082V309.557C51.8082 309.129 51.6851 308.788 51.4389 308.534C51.1965 308.28 50.8764 308.153 50.4787 308.153C50.2098 308.153 49.9673 308.222 49.7514 308.358C49.5393 308.491 49.3707 308.678 49.2457 308.92C49.1207 309.159 49.0582 309.439 49.0582 309.761V315H46.6378ZM63.7202 315.165C63.1634 315.165 62.6671 315.068 62.2315 314.875C61.7959 314.678 61.4512 314.388 61.1974 314.006C60.9474 313.619 60.8224 313.138 60.8224 312.562C60.8224 312.078 60.9115 311.67 61.0895 311.341C61.2675 311.011 61.5099 310.746 61.8168 310.545C62.1236 310.345 62.4721 310.193 62.8622 310.091C63.2562 309.989 63.669 309.917 64.1009 309.875C64.6084 309.822 65.0175 309.773 65.3281 309.727C65.6387 309.678 65.8641 309.606 66.0043 309.511C66.1444 309.417 66.2145 309.277 66.2145 309.091V309.057C66.2145 308.697 66.1009 308.419 65.8736 308.222C65.6501 308.025 65.3319 307.926 64.919 307.926C64.4834 307.926 64.1368 308.023 63.8793 308.216C63.6217 308.405 63.4512 308.644 63.3679 308.932L61.1293 308.75C61.2429 308.22 61.4664 307.761 61.7997 307.375C62.133 306.985 62.563 306.686 63.0895 306.477C63.6198 306.265 64.2334 306.159 64.9304 306.159C65.4152 306.159 65.8793 306.216 66.3224 306.33C66.7694 306.443 67.1652 306.619 67.5099 306.858C67.8584 307.097 68.133 307.403 68.3338 307.778C68.5346 308.15 68.6349 308.595 68.6349 309.114V315H66.3395V313.79H66.2713C66.1312 314.062 65.9437 314.303 65.7088 314.511C65.474 314.716 65.1918 314.877 64.8622 314.994C64.5327 315.108 64.152 315.165 63.7202 315.165ZM64.4134 313.494C64.7694 313.494 65.0838 313.424 65.3565 313.284C65.6293 313.14 65.8433 312.947 65.9986 312.705C66.1539 312.462 66.2315 312.187 66.2315 311.881V310.955C66.1558 311.004 66.0516 311.049 65.919 311.091C65.7902 311.129 65.6444 311.165 65.4815 311.199C65.3187 311.229 65.1558 311.258 64.9929 311.284C64.83 311.307 64.6823 311.328 64.5497 311.347C64.2656 311.388 64.0175 311.455 63.8054 311.545C63.5933 311.636 63.4285 311.759 63.3111 311.915C63.1937 312.066 63.1349 312.256 63.1349 312.483C63.1349 312.812 63.2543 313.064 63.4929 313.239C63.7353 313.409 64.0421 313.494 64.4134 313.494ZM70.5128 315V306.273H72.9332V315H70.5128ZM71.7287 305.148C71.3688 305.148 71.0601 305.028 70.8026 304.79C70.5488 304.547 70.4219 304.258 70.4219 303.92C70.4219 303.587 70.5488 303.301 70.8026 303.062C71.0601 302.82 71.3688 302.699 71.7287 302.699C72.0885 302.699 72.3954 302.82 72.6491 303.062C72.9067 303.301 73.0355 303.587 73.0355 303.92C73.0355 304.258 72.9067 304.547 72.6491 304.79C72.3954 305.028 72.0885 305.148 71.7287 305.148ZM77.2926 303.364V315H74.8722V303.364H77.2926ZM80.6463 315.148C80.2713 315.148 79.9493 315.015 79.6804 314.75C79.4152 314.481 79.2827 314.159 79.2827 313.784C79.2827 313.413 79.4152 313.095 79.6804 312.83C79.9493 312.564 80.2713 312.432 80.6463 312.432C81.0099 312.432 81.3281 312.564 81.6009 312.83C81.8736 313.095 82.0099 313.413 82.0099 313.784C82.0099 314.034 81.9455 314.263 81.8168 314.472C81.6918 314.676 81.527 314.841 81.3224 314.966C81.1179 315.087 80.8925 315.148 80.6463 315.148ZM87.9403 315.17C87.0464 315.17 86.2775 314.981 85.6335 314.602C84.9934 314.22 84.5009 313.689 84.1562 313.011C83.8153 312.333 83.6449 311.553 83.6449 310.67C83.6449 309.777 83.8172 308.992 84.1619 308.318C84.5104 307.64 85.0047 307.112 85.6449 306.733C86.285 306.35 87.0464 306.159 87.929 306.159C88.6903 306.159 89.357 306.297 89.929 306.574C90.5009 306.85 90.9536 307.239 91.2869 307.739C91.6203 308.239 91.804 308.826 91.8381 309.5H89.554C89.4896 309.064 89.3191 308.714 89.0426 308.449C88.7699 308.18 88.4119 308.045 87.9688 308.045C87.5938 308.045 87.2661 308.148 86.9858 308.352C86.7093 308.553 86.4934 308.847 86.3381 309.233C86.1828 309.619 86.1051 310.087 86.1051 310.636C86.1051 311.193 86.1809 311.667 86.3324 312.057C86.4877 312.447 86.7055 312.744 86.9858 312.949C87.2661 313.153 87.5938 313.256 87.9688 313.256C88.2453 313.256 88.4934 313.199 88.7131 313.085C88.9366 312.972 89.1203 312.807 89.2642 312.591C89.4119 312.371 89.5085 312.108 89.554 311.801H91.8381C91.8002 312.468 91.6184 313.055 91.2926 313.562C90.9706 314.066 90.5256 314.46 89.9574 314.744C89.3892 315.028 88.7169 315.17 87.9403 315.17ZM97.331 315.17C96.4484 315.17 95.6851 314.983 95.0412 314.608C94.401 314.229 93.9067 313.703 93.5582 313.028C93.2098 312.35 93.0355 311.564 93.0355 310.67C93.0355 309.769 93.2098 308.981 93.5582 308.307C93.9067 307.629 94.401 307.102 95.0412 306.727C95.6851 306.348 96.4484 306.159 97.331 306.159C98.2135 306.159 98.9749 306.348 99.6151 306.727C100.259 307.102 100.755 307.629 101.104 308.307C101.452 308.981 101.626 309.769 101.626 310.67C101.626 311.564 101.452 312.35 101.104 313.028C100.755 313.703 100.259 314.229 99.6151 314.608C98.9749 314.983 98.2135 315.17 97.331 315.17ZM97.3423 313.295C97.7438 313.295 98.0791 313.182 98.348 312.955C98.617 312.723 98.8196 312.409 98.956 312.011C99.0961 311.614 99.1662 311.161 99.1662 310.653C99.1662 310.146 99.0961 309.693 98.956 309.295C98.8196 308.898 98.617 308.583 98.348 308.352C98.0791 308.121 97.7438 308.006 97.3423 308.006C96.937 308.006 96.5961 308.121 96.3196 308.352C96.0469 308.583 95.8404 308.898 95.7003 309.295C95.5639 309.693 95.4957 310.146 95.4957 310.653C95.4957 311.161 95.5639 311.614 95.7003 312.011C95.8404 312.409 96.0469 312.723 96.3196 312.955C96.5961 313.182 96.937 313.295 97.3423 313.295ZM103.2 315V306.273H105.507V307.812H105.609C105.791 307.301 106.094 306.898 106.518 306.602C106.943 306.307 107.45 306.159 108.041 306.159C108.64 306.159 109.149 306.309 109.57 306.608C109.99 306.903 110.27 307.305 110.411 307.812H110.501C110.679 307.312 111.001 306.913 111.467 306.614C111.937 306.311 112.492 306.159 113.132 306.159C113.946 306.159 114.607 306.419 115.115 306.938C115.626 307.453 115.882 308.184 115.882 309.131V315H113.467V309.608C113.467 309.123 113.339 308.759 113.081 308.517C112.823 308.275 112.501 308.153 112.115 308.153C111.676 308.153 111.333 308.294 111.087 308.574C110.84 308.85 110.717 309.216 110.717 309.67V315H108.371V309.557C108.371 309.129 108.248 308.788 108.001 308.534C107.759 308.28 107.439 308.153 107.041 308.153C106.772 308.153 106.53 308.222 106.314 308.358C106.102 308.491 105.933 308.678 105.808 308.92C105.683 309.159 105.621 309.439 105.621 309.761V315H103.2Z" fill="#9B9B9B" fill-opacity="0.2"/>
<path d="M0 318.182H116.825V319.273H0V318.182Z" fill="#9B9B9B" fill-opacity="0.2"/>
<a href="mailto:zd@gmail.com">
<rect fill="black" fill-opacity="0" y="-0.181818" width="116.825" height="19.3636"/>
</a>
<path d="M210.211 243.284V238.273H212.632V247H210.308V245.415H210.217C210.02 245.926 209.692 246.337 209.234 246.648C208.78 246.958 208.225 247.114 207.569 247.114C206.986 247.114 206.473 246.981 206.03 246.716C205.586 246.451 205.24 246.074 204.99 245.585C204.744 245.097 204.619 244.511 204.615 243.83V238.273H207.035V243.398C207.039 243.913 207.177 244.32 207.45 244.619C207.723 244.919 208.088 245.068 208.547 245.068C208.838 245.068 209.111 245.002 209.365 244.869C209.619 244.733 209.823 244.532 209.978 244.267C210.138 244.002 210.215 243.674 210.211 243.284ZM221.829 240.761L219.613 240.898C219.576 240.708 219.494 240.538 219.369 240.386C219.244 240.231 219.079 240.108 218.875 240.017C218.674 239.922 218.433 239.875 218.153 239.875C217.778 239.875 217.462 239.955 217.204 240.114C216.947 240.269 216.818 240.477 216.818 240.739C216.818 240.947 216.901 241.123 217.068 241.267C217.235 241.411 217.521 241.527 217.926 241.614L219.505 241.932C220.354 242.106 220.986 242.386 221.403 242.773C221.82 243.159 222.028 243.667 222.028 244.295C222.028 244.867 221.86 245.369 221.522 245.801C221.189 246.233 220.731 246.57 220.147 246.812C219.568 247.051 218.899 247.17 218.142 247.17C216.986 247.17 216.066 246.93 215.38 246.449C214.699 245.964 214.299 245.305 214.182 244.472L216.562 244.347C216.634 244.699 216.808 244.968 217.085 245.153C217.361 245.335 217.716 245.426 218.147 245.426C218.572 245.426 218.913 245.345 219.17 245.182C219.432 245.015 219.564 244.801 219.568 244.54C219.564 244.32 219.471 244.14 219.29 244C219.108 243.856 218.827 243.746 218.449 243.67L216.937 243.369C216.085 243.199 215.451 242.903 215.034 242.483C214.621 242.062 214.415 241.527 214.415 240.875C214.415 240.314 214.566 239.831 214.869 239.426C215.176 239.021 215.606 238.708 216.159 238.489C216.716 238.269 217.367 238.159 218.113 238.159C219.216 238.159 220.083 238.392 220.716 238.858C221.352 239.324 221.723 239.958 221.829 240.761ZM227.53 247.17C226.632 247.17 225.859 246.989 225.211 246.625C224.567 246.258 224.071 245.739 223.723 245.068C223.374 244.394 223.2 243.597 223.2 242.676C223.2 241.778 223.374 240.991 223.723 240.312C224.071 239.634 224.562 239.106 225.194 238.727C225.831 238.348 226.577 238.159 227.433 238.159C228.009 238.159 228.545 238.252 229.041 238.438C229.541 238.619 229.977 238.894 230.348 239.261C230.723 239.629 231.014 240.091 231.223 240.648C231.431 241.201 231.535 241.848 231.535 242.591V243.256H224.166V241.756H229.257C229.257 241.407 229.181 241.098 229.03 240.83C228.878 240.561 228.668 240.35 228.399 240.199C228.134 240.044 227.825 239.966 227.473 239.966C227.105 239.966 226.78 240.051 226.495 240.222C226.215 240.388 225.995 240.614 225.836 240.898C225.677 241.178 225.596 241.491 225.592 241.835V243.261C225.592 243.693 225.672 244.066 225.831 244.381C225.994 244.695 226.223 244.938 226.518 245.108C226.814 245.278 227.164 245.364 227.569 245.364C227.838 245.364 228.085 245.326 228.308 245.25C228.531 245.174 228.723 245.061 228.882 244.909C229.041 244.758 229.162 244.572 229.245 244.352L231.484 244.5C231.37 245.038 231.138 245.508 230.785 245.909C230.437 246.307 229.986 246.617 229.433 246.841C228.884 247.061 228.249 247.17 227.53 247.17ZM233.115 247V238.273H235.461V239.795H235.552C235.711 239.254 235.978 238.845 236.353 238.568C236.728 238.288 237.16 238.148 237.649 238.148C237.77 238.148 237.901 238.155 238.041 238.17C238.181 238.186 238.304 238.206 238.41 238.233V240.381C238.297 240.347 238.139 240.316 237.939 240.29C237.738 240.263 237.554 240.25 237.388 240.25C237.031 240.25 236.713 240.328 236.433 240.483C236.156 240.634 235.937 240.847 235.774 241.119C235.615 241.392 235.535 241.706 235.535 242.062V247H233.115ZM247.281 250.352C246.073 250.352 244.997 250.188 244.054 249.858C243.111 249.532 242.313 249.053 241.662 248.42C241.01 247.792 240.514 247.023 240.173 246.114C239.832 245.205 239.662 244.17 239.662 243.011C239.662 241.867 239.832 240.83 240.173 239.898C240.518 238.966 241.02 238.167 241.679 237.5C242.338 236.83 243.143 236.314 244.093 235.955C245.048 235.595 246.135 235.415 247.355 235.415C248.484 235.415 249.491 235.58 250.378 235.909C251.268 236.239 252.022 236.708 252.639 237.318C253.26 237.924 253.732 238.646 254.054 239.483C254.379 240.316 254.54 241.239 254.537 242.25C254.54 242.947 254.48 243.587 254.355 244.17C254.23 244.754 254.033 245.263 253.764 245.699C253.499 246.131 253.15 246.473 252.718 246.727C252.287 246.977 251.764 247.119 251.15 247.153C250.711 247.188 250.355 247.155 250.082 247.057C249.809 246.958 249.601 246.812 249.457 246.619C249.317 246.422 249.226 246.193 249.184 245.932H249.116C249.025 246.159 248.847 246.366 248.582 246.551C248.317 246.733 247.993 246.875 247.611 246.977C247.232 247.076 246.828 247.112 246.4 247.085C245.953 247.059 245.529 246.955 245.128 246.773C244.73 246.591 244.376 246.328 244.065 245.983C243.758 245.638 243.516 245.212 243.338 244.705C243.164 244.197 243.075 243.61 243.071 242.943C243.075 242.284 243.167 241.71 243.349 241.222C243.535 240.733 243.779 240.322 244.082 239.989C244.389 239.655 244.73 239.394 245.105 239.205C245.48 239.015 245.857 238.894 246.236 238.841C246.664 238.777 247.069 238.777 247.451 238.841C247.834 238.905 248.156 239.009 248.417 239.153C248.683 239.297 248.847 239.453 248.912 239.619H248.991V238.983H250.77V244.528C250.773 244.79 250.832 244.992 250.946 245.136C251.059 245.28 251.213 245.352 251.406 245.352C251.667 245.352 251.885 245.237 252.059 245.006C252.237 244.775 252.37 244.42 252.457 243.943C252.548 243.466 252.593 242.858 252.593 242.119C252.593 241.407 252.499 240.782 252.309 240.244C252.124 239.703 251.862 239.242 251.525 238.864C251.192 238.481 250.804 238.17 250.361 237.932C249.917 237.693 249.436 237.519 248.917 237.409C248.402 237.299 247.872 237.244 247.326 237.244C246.383 237.244 245.559 237.388 244.855 237.676C244.15 237.96 243.563 238.36 243.093 238.875C242.624 239.39 242.272 239.994 242.037 240.688C241.806 241.377 241.688 242.129 241.684 242.943C241.688 243.841 241.813 244.636 242.059 245.33C242.309 246.019 242.677 246.598 243.162 247.068C243.647 247.538 244.245 247.894 244.957 248.136C245.669 248.379 246.487 248.5 247.412 248.5C247.847 248.5 248.273 248.468 248.69 248.403C249.107 248.343 249.484 248.267 249.821 248.176C250.158 248.089 250.429 248.004 250.633 247.92L251.196 249.568C250.957 249.705 250.633 249.831 250.224 249.949C249.819 250.07 249.361 250.167 248.849 250.239C248.342 250.314 247.819 250.352 247.281 250.352ZM247.02 245.216C247.482 245.216 247.849 245.127 248.122 244.949C248.398 244.771 248.595 244.508 248.713 244.159C248.834 243.807 248.891 243.373 248.883 242.858C248.879 242.403 248.821 242.019 248.707 241.705C248.597 241.386 248.406 241.146 248.133 240.983C247.864 240.816 247.489 240.733 247.008 240.733C246.588 240.733 246.23 240.822 245.934 241C245.643 241.178 245.419 241.428 245.264 241.75C245.112 242.068 245.035 242.443 245.031 242.875C245.035 243.277 245.099 243.657 245.224 244.017C245.349 244.373 245.556 244.663 245.843 244.886C246.131 245.106 246.523 245.216 247.02 245.216ZM260.078 250.455C259.294 250.455 258.621 250.347 258.061 250.131C257.504 249.919 257.061 249.629 256.731 249.261C256.402 248.894 256.188 248.481 256.089 248.023L258.328 247.722C258.396 247.896 258.504 248.059 258.652 248.21C258.799 248.362 258.995 248.483 259.237 248.574C259.483 248.669 259.782 248.716 260.135 248.716C260.661 248.716 261.095 248.587 261.436 248.33C261.781 248.076 261.953 247.65 261.953 247.051V245.455H261.851C261.745 245.697 261.585 245.926 261.373 246.142C261.161 246.358 260.888 246.534 260.555 246.67C260.222 246.807 259.824 246.875 259.362 246.875C258.707 246.875 258.11 246.723 257.572 246.42C257.038 246.114 256.612 245.646 256.294 245.017C255.979 244.384 255.822 243.585 255.822 242.619C255.822 241.631 255.983 240.805 256.305 240.142C256.627 239.479 257.055 238.983 257.589 238.653C258.127 238.324 258.716 238.159 259.356 238.159C259.845 238.159 260.254 238.242 260.584 238.409C260.913 238.572 261.178 238.777 261.379 239.023C261.584 239.265 261.741 239.504 261.851 239.739H261.942V238.273H264.345V247.085C264.345 247.828 264.163 248.449 263.799 248.949C263.436 249.449 262.932 249.824 262.288 250.074C261.648 250.328 260.911 250.455 260.078 250.455ZM260.129 245.057C260.519 245.057 260.849 244.96 261.118 244.767C261.39 244.57 261.599 244.29 261.743 243.926C261.89 243.559 261.964 243.119 261.964 242.608C261.964 242.097 261.892 241.653 261.748 241.278C261.604 240.9 261.396 240.606 261.123 240.398C260.851 240.189 260.519 240.085 260.129 240.085C259.731 240.085 259.396 240.193 259.123 240.409C258.851 240.621 258.644 240.917 258.504 241.295C258.364 241.674 258.294 242.112 258.294 242.608C258.294 243.112 258.364 243.547 258.504 243.915C258.648 244.278 258.854 244.561 259.123 244.761C259.396 244.958 259.731 245.057 260.129 245.057ZM266.271 247V238.273H268.578V239.812H268.68C268.862 239.301 269.165 238.898 269.589 238.602C270.013 238.307 270.521 238.159 271.112 238.159C271.71 238.159 272.22 238.309 272.64 238.608C273.061 238.903 273.341 239.305 273.481 239.812H273.572C273.75 239.312 274.072 238.913 274.538 238.614C275.008 238.311 275.563 238.159 276.203 238.159C277.017 238.159 277.678 238.419 278.186 238.938C278.697 239.453 278.953 240.184 278.953 241.131V247H276.538V241.608C276.538 241.123 276.409 240.759 276.152 240.517C275.894 240.275 275.572 240.153 275.186 240.153C274.746 240.153 274.404 240.294 274.157 240.574C273.911 240.85 273.788 241.216 273.788 241.67V247H271.442V241.557C271.442 241.129 271.318 240.788 271.072 240.534C270.83 240.28 270.51 240.153 270.112 240.153C269.843 240.153 269.601 240.222 269.385 240.358C269.173 240.491 269.004 240.678 268.879 240.92C268.754 241.159 268.692 241.439 268.692 241.761V247H266.271ZM283.353 247.165C282.797 247.165 282.3 247.068 281.865 246.875C281.429 246.678 281.085 246.388 280.831 246.006C280.581 245.619 280.456 245.138 280.456 244.562C280.456 244.078 280.545 243.67 280.723 243.341C280.901 243.011 281.143 242.746 281.45 242.545C281.757 242.345 282.105 242.193 282.495 242.091C282.889 241.989 283.302 241.917 283.734 241.875C284.242 241.822 284.651 241.773 284.961 241.727C285.272 241.678 285.497 241.606 285.638 241.511C285.778 241.417 285.848 241.277 285.848 241.091V241.057C285.848 240.697 285.734 240.419 285.507 240.222C285.283 240.025 284.965 239.926 284.552 239.926C284.117 239.926 283.77 240.023 283.513 240.216C283.255 240.405 283.085 240.644 283.001 240.932L280.763 240.75C280.876 240.22 281.1 239.761 281.433 239.375C281.766 238.985 282.196 238.686 282.723 238.477C283.253 238.265 283.867 238.159 284.564 238.159C285.049 238.159 285.513 238.216 285.956 238.33C286.403 238.443 286.799 238.619 287.143 238.858C287.492 239.097 287.766 239.403 287.967 239.778C288.168 240.15 288.268 240.595 288.268 241.114V247H285.973V245.79H285.905C285.764 246.062 285.577 246.303 285.342 246.511C285.107 246.716 284.825 246.877 284.495 246.994C284.166 247.108 283.785 247.165 283.353 247.165ZM284.047 245.494C284.403 245.494 284.717 245.424 284.99 245.284C285.263 245.14 285.477 244.947 285.632 244.705C285.787 244.462 285.865 244.187 285.865 243.881V242.955C285.789 243.004 285.685 243.049 285.552 243.091C285.424 243.129 285.278 243.165 285.115 243.199C284.952 243.229 284.789 243.258 284.626 243.284C284.463 243.307 284.316 243.328 284.183 243.347C283.899 243.388 283.651 243.455 283.439 243.545C283.227 243.636 283.062 243.759 282.944 243.915C282.827 244.066 282.768 244.256 282.768 244.483C282.768 244.812 282.888 245.064 283.126 245.239C283.369 245.409 283.675 245.494 284.047 245.494ZM290.146 247V238.273H292.567V247H290.146ZM291.362 237.148C291.002 237.148 290.693 237.028 290.436 236.79C290.182 236.547 290.055 236.258 290.055 235.92C290.055 235.587 290.182 235.301 290.436 235.062C290.693 234.82 291.002 234.699 291.362 234.699C291.722 234.699 292.029 234.82 292.282 235.062C292.54 235.301 292.669 235.587 292.669 235.92C292.669 236.258 292.54 236.547 292.282 236.79C292.029 237.028 291.722 237.148 291.362 237.148ZM296.926 235.364V247H294.505V235.364H296.926ZM300.28 247.148C299.905 247.148 299.583 247.015 299.314 246.75C299.049 246.481 298.916 246.159 298.916 245.784C298.916 245.413 299.049 245.095 299.314 244.83C299.583 244.564 299.905 244.432 300.28 244.432C300.643 244.432 300.961 244.564 301.234 244.83C301.507 245.095 301.643 245.413 301.643 245.784C301.643 246.034 301.579 246.263 301.45 246.472C301.325 246.676 301.16 246.841 300.956 246.966C300.751 247.087 300.526 247.148 300.28 247.148ZM307.574 247.17C306.68 247.17 305.911 246.981 305.267 246.602C304.627 246.22 304.134 245.689 303.79 245.011C303.449 244.333 303.278 243.553 303.278 242.67C303.278 241.777 303.451 240.992 303.795 240.318C304.144 239.64 304.638 239.112 305.278 238.733C305.918 238.35 306.68 238.159 307.562 238.159C308.324 238.159 308.99 238.297 309.562 238.574C310.134 238.85 310.587 239.239 310.92 239.739C311.254 240.239 311.437 240.826 311.471 241.5H309.187C309.123 241.064 308.952 240.714 308.676 240.449C308.403 240.18 308.045 240.045 307.602 240.045C307.227 240.045 306.899 240.148 306.619 240.352C306.343 240.553 306.127 240.847 305.971 241.233C305.816 241.619 305.738 242.087 305.738 242.636C305.738 243.193 305.814 243.667 305.966 244.057C306.121 244.447 306.339 244.744 306.619 244.949C306.899 245.153 307.227 245.256 307.602 245.256C307.879 245.256 308.127 245.199 308.346 245.085C308.57 244.972 308.754 244.807 308.897 244.591C309.045 244.371 309.142 244.108 309.187 243.801H311.471C311.433 244.468 311.252 245.055 310.926 245.562C310.604 246.066 310.159 246.46 309.591 246.744C309.022 247.028 308.35 247.17 307.574 247.17Z" fill="#919191" fill-opacity="0.2"/>
<path d="M203.649 250.182H312.062V251.273H203.649V250.182Z" fill="#919191" fill-opacity="0.2"/>
<a href="mailto:user@gmail.c">
<rect fill="black" fill-opacity="0" y="-0.181818" width="108.413" height="19.3636"/>
</a>
<path d="M210.211 311.284V306.273H212.632V315H210.308V313.415H210.217C210.02 313.926 209.692 314.337 209.234 314.648C208.78 314.958 208.225 315.114 207.569 315.114C206.986 315.114 206.473 314.981 206.03 314.716C205.586 314.451 205.24 314.074 204.99 313.585C204.744 313.097 204.619 312.511 204.615 311.83V306.273H207.035V311.398C207.039 311.913 207.177 312.32 207.45 312.619C207.723 312.919 208.088 313.068 208.547 313.068C208.838 313.068 209.111 313.002 209.365 312.869C209.619 312.733 209.823 312.532 209.978 312.267C210.138 312.002 210.215 311.674 210.211 311.284ZM221.829 308.761L219.613 308.898C219.576 308.708 219.494 308.538 219.369 308.386C219.244 308.231 219.079 308.108 218.875 308.017C218.674 307.922 218.433 307.875 218.153 307.875C217.778 307.875 217.462 307.955 217.204 308.114C216.947 308.269 216.818 308.477 216.818 308.739C216.818 308.947 216.901 309.123 217.068 309.267C217.235 309.411 217.521 309.527 217.926 309.614L219.505 309.932C220.354 310.106 220.986 310.386 221.403 310.773C221.82 311.159 222.028 311.667 222.028 312.295C222.028 312.867 221.86 313.369 221.522 313.801C221.189 314.233 220.731 314.57 220.147 314.812C219.568 315.051 218.899 315.17 218.142 315.17C216.986 315.17 216.066 314.93 215.38 314.449C214.699 313.964 214.299 313.305 214.182 312.472L216.562 312.347C216.634 312.699 216.808 312.968 217.085 313.153C217.361 313.335 217.716 313.426 218.147 313.426C218.572 313.426 218.913 313.345 219.17 313.182C219.432 313.015 219.564 312.801 219.568 312.54C219.564 312.32 219.471 312.14 219.29 312C219.108 311.856 218.827 311.746 218.449 311.67L216.937 311.369C216.085 311.199 215.451 310.903 215.034 310.483C214.621 310.062 214.415 309.527 214.415 308.875C214.415 308.314 214.566 307.831 214.869 307.426C215.176 307.021 215.606 306.708 216.159 306.489C216.716 306.269 217.367 306.159 218.113 306.159C219.216 306.159 220.083 306.392 220.716 306.858C221.352 307.324 221.723 307.958 221.829 308.761ZM227.53 315.17C226.632 315.17 225.859 314.989 225.211 314.625C224.567 314.258 224.071 313.739 223.723 313.068C223.374 312.394 223.2 311.597 223.2 310.676C223.2 309.778 223.374 308.991 223.723 308.312C224.071 307.634 224.562 307.106 225.194 306.727C225.831 306.348 226.577 306.159 227.433 306.159C228.009 306.159 228.545 306.252 229.041 306.438C229.541 306.619 229.977 306.894 230.348 307.261C230.723 307.629 231.014 308.091 231.223 308.648C231.431 309.201 231.535 309.848 231.535 310.591V311.256H224.166V309.756H229.257C229.257 309.407 229.181 309.098 229.03 308.83C228.878 308.561 228.668 308.35 228.399 308.199C228.134 308.044 227.825 307.966 227.473 307.966C227.105 307.966 226.78 308.051 226.495 308.222C226.215 308.388 225.995 308.614 225.836 308.898C225.677 309.178 225.596 309.491 225.592 309.835V311.261C225.592 311.693 225.672 312.066 225.831 312.381C225.994 312.695 226.223 312.938 226.518 313.108C226.814 313.278 227.164 313.364 227.569 313.364C227.838 313.364 228.085 313.326 228.308 313.25C228.531 313.174 228.723 313.061 228.882 312.909C229.041 312.758 229.162 312.572 229.245 312.352L231.484 312.5C231.37 313.038 231.138 313.508 230.785 313.909C230.437 314.307 229.986 314.617 229.433 314.841C228.884 315.061 228.249 315.17 227.53 315.17ZM233.115 315V306.273H235.461V307.795H235.552C235.711 307.254 235.978 306.845 236.353 306.568C236.728 306.288 237.16 306.148 237.649 306.148C237.77 306.148 237.901 306.155 238.041 306.17C238.181 306.186 238.304 306.206 238.41 306.233V308.381C238.297 308.347 238.139 308.316 237.939 308.29C237.738 308.263 237.554 308.25 237.388 308.25C237.031 308.25 236.713 308.328 236.433 308.483C236.156 308.634 235.937 308.847 235.774 309.119C235.615 309.392 235.535 309.706 235.535 310.062V315H233.115ZM247.281 318.352C246.073 318.352 244.997 318.188 244.054 317.858C243.111 317.532 242.313 317.053 241.662 316.42C241.01 315.792 240.514 315.023 240.173 314.114C239.832 313.205 239.662 312.17 239.662 311.011C239.662 309.867 239.832 308.83 240.173 307.898C240.518 306.966 241.02 306.167 241.679 305.5C242.338 304.83 243.143 304.314 244.093 303.955C245.048 303.595 246.135 303.415 247.355 303.415C248.484 303.415 249.491 303.58 250.378 303.909C251.268 304.239 252.022 304.708 252.639 305.318C253.26 305.924 253.732 306.646 254.054 307.483C254.379 308.316 254.54 309.239 254.537 310.25C254.54 310.947 254.48 311.587 254.355 312.17C254.23 312.754 254.033 313.263 253.764 313.699C253.499 314.131 253.15 314.473 252.718 314.727C252.287 314.977 251.764 315.119 251.15 315.153C250.711 315.188 250.355 315.155 250.082 315.057C249.809 314.958 249.601 314.812 249.457 314.619C249.317 314.422 249.226 314.193 249.184 313.932H249.116C249.025 314.159 248.847 314.366 248.582 314.551C248.317 314.733 247.993 314.875 247.611 314.977C247.232 315.076 246.828 315.112 246.4 315.085C245.953 315.059 245.529 314.955 245.128 314.773C244.73 314.591 244.376 314.328 244.065 313.983C243.758 313.638 243.516 313.212 243.338 312.705C243.164 312.197 243.075 311.61 243.071 310.943C243.075 310.284 243.167 309.71 243.349 309.222C243.535 308.733 243.779 308.322 244.082 307.989C244.389 307.655 244.73 307.394 245.105 307.205C245.48 307.015 245.857 306.894 246.236 306.841C246.664 306.777 247.069 306.777 247.451 306.841C247.834 306.905 248.156 307.009 248.417 307.153C248.683 307.297 248.847 307.453 248.912 307.619H248.991V306.983H250.77V312.528C250.773 312.79 250.832 312.992 250.946 313.136C251.059 313.28 251.213 313.352 251.406 313.352C251.667 313.352 251.885 313.237 252.059 313.006C252.237 312.775 252.37 312.42 252.457 311.943C252.548 311.466 252.593 310.858 252.593 310.119C252.593 309.407 252.499 308.782 252.309 308.244C252.124 307.703 251.862 307.242 251.525 306.864C251.192 306.481 250.804 306.17 250.361 305.932C249.917 305.693 249.436 305.519 248.917 305.409C248.402 305.299 247.872 305.244 247.326 305.244C246.383 305.244 245.559 305.388 244.855 305.676C244.15 305.96 243.563 306.36 243.093 306.875C242.624 307.39 242.272 307.994 242.037 308.688C241.806 309.377 241.688 310.129 241.684 310.943C241.688 311.841 241.813 312.636 242.059 313.33C242.309 314.019 242.677 314.598 243.162 315.068C243.647 315.538 244.245 315.894 244.957 316.136C245.669 316.379 246.487 316.5 247.412 316.5C247.847 316.5 248.273 316.468 248.69 316.403C249.107 316.343 249.484 316.267 249.821 316.176C250.158 316.089 250.429 316.004 250.633 315.92L251.196 317.568C250.957 317.705 250.633 317.831 250.224 317.949C249.819 318.07 249.361 318.167 248.849 318.239C248.342 318.314 247.819 318.352 247.281 318.352ZM247.02 313.216C247.482 313.216 247.849 313.127 248.122 312.949C248.398 312.771 248.595 312.508 248.713 312.159C248.834 311.807 248.891 311.373 248.883 310.858C248.879 310.403 248.821 310.019 248.707 309.705C248.597 309.386 248.406 309.146 248.133 308.983C247.864 308.816 247.489 308.733 247.008 308.733C246.588 308.733 246.23 308.822 245.934 309C245.643 309.178 245.419 309.428 245.264 309.75C245.112 310.068 245.035 310.443 245.031 310.875C245.035 311.277 245.099 311.657 245.224 312.017C245.349 312.373 245.556 312.663 245.843 312.886C246.131 313.106 246.523 313.216 247.02 313.216ZM260.078 318.455C259.294 318.455 258.621 318.347 258.061 318.131C257.504 317.919 257.061 317.629 256.731 317.261C256.402 316.894 256.188 316.481 256.089 316.023L258.328 315.722C258.396 315.896 258.504 316.059 258.652 316.21C258.799 316.362 258.995 316.483 259.237 316.574C259.483 316.669 259.782 316.716 260.135 316.716C260.661 316.716 261.095 316.587 261.436 316.33C261.781 316.076 261.953 315.65 261.953 315.051V313.455H261.851C261.745 313.697 261.585 313.926 261.373 314.142C261.161 314.358 260.888 314.534 260.555 314.67C260.222 314.807 259.824 314.875 259.362 314.875C258.707 314.875 258.11 314.723 257.572 314.42C257.038 314.114 256.612 313.646 256.294 313.017C255.979 312.384 255.822 311.585 255.822 310.619C255.822 309.631 255.983 308.805 256.305 308.142C256.627 307.479 257.055 306.983 257.589 306.653C258.127 306.324 258.716 306.159 259.356 306.159C259.845 306.159 260.254 306.242 260.584 306.409C260.913 306.572 261.178 306.777 261.379 307.023C261.584 307.265 261.741 307.504 261.851 307.739H261.942V306.273H264.345V315.085C264.345 315.828 264.163 316.449 263.799 316.949C263.436 317.449 262.932 317.824 262.288 318.074C261.648 318.328 260.911 318.455 260.078 318.455ZM260.129 313.057C260.519 313.057 260.849 312.96 261.118 312.767C261.39 312.57 261.599 312.29 261.743 311.926C261.89 311.559 261.964 311.119 261.964 310.608C261.964 310.097 261.892 309.653 261.748 309.278C261.604 308.9 261.396 308.606 261.123 308.398C260.851 308.189 260.519 308.085 260.129 308.085C259.731 308.085 259.396 308.193 259.123 308.409C258.851 308.621 258.644 308.917 258.504 309.295C258.364 309.674 258.294 310.112 258.294 310.608C258.294 311.112 258.364 311.547 258.504 311.915C258.648 312.278 258.854 312.561 259.123 312.761C259.396 312.958 259.731 313.057 260.129 313.057ZM266.271 315V306.273H268.578V307.812H268.68C268.862 307.301 269.165 306.898 269.589 306.602C270.013 306.307 270.521 306.159 271.112 306.159C271.71 306.159 272.22 306.309 272.64 306.608C273.061 306.903 273.341 307.305 273.481 307.812H273.572C273.75 307.312 274.072 306.913 274.538 306.614C275.008 306.311 275.563 306.159 276.203 306.159C277.017 306.159 277.678 306.419 278.186 306.938C278.697 307.453 278.953 308.184 278.953 309.131V315H276.538V309.608C276.538 309.123 276.409 308.759 276.152 308.517C275.894 308.275 275.572 308.153 275.186 308.153C274.746 308.153 274.404 308.294 274.157 308.574C273.911 308.85 273.788 309.216 273.788 309.67V315H271.442V309.557C271.442 309.129 271.318 308.788 271.072 308.534C270.83 308.28 270.51 308.153 270.112 308.153C269.843 308.153 269.601 308.222 269.385 308.358C269.173 308.491 269.004 308.678 268.879 308.92C268.754 309.159 268.692 309.439 268.692 309.761V315H266.271ZM283.353 315.165C282.797 315.165 282.3 315.068 281.865 314.875C281.429 314.678 281.085 314.388 280.831 314.006C280.581 313.619 280.456 313.138 280.456 312.562C280.456 312.078 280.545 311.67 280.723 311.341C280.901 311.011 281.143 310.746 281.45 310.545C281.757 310.345 282.105 310.193 282.495 310.091C282.889 309.989 283.302 309.917 283.734 309.875C284.242 309.822 284.651 309.773 284.961 309.727C285.272 309.678 285.497 309.606 285.638 309.511C285.778 309.417 285.848 309.277 285.848 309.091V309.057C285.848 308.697 285.734 308.419 285.507 308.222C285.283 308.025 284.965 307.926 284.552 307.926C284.117 307.926 283.77 308.023 283.513 308.216C283.255 308.405 283.085 308.644 283.001 308.932L280.763 308.75C280.876 308.22 281.1 307.761 281.433 307.375C281.766 306.985 282.196 306.686 282.723 306.477C283.253 306.265 283.867 306.159 284.564 306.159C285.049 306.159 285.513 306.216 285.956 306.33C286.403 306.443 286.799 306.619 287.143 306.858C287.492 307.097 287.766 307.403 287.967 307.778C288.168 308.15 288.268 308.595 288.268 309.114V315H285.973V313.79H285.905C285.764 314.062 285.577 314.303 285.342 314.511C285.107 314.716 284.825 314.877 284.495 314.994C284.166 315.108 283.785 315.165 283.353 315.165ZM284.047 313.494C284.403 313.494 284.717 313.424 284.99 313.284C285.263 313.14 285.477 312.947 285.632 312.705C285.787 312.462 285.865 312.187 285.865 311.881V310.955C285.789 311.004 285.685 311.049 285.552 311.091C285.424 311.129 285.278 311.165 285.115 311.199C284.952 311.229 284.789 311.258 284.626 311.284C284.463 311.307 284.316 311.328 284.183 311.347C283.899 311.388 283.651 311.455 283.439 311.545C283.227 311.636 283.062 311.759 282.944 311.915C282.827 312.066 282.768 312.256 282.768 312.483C282.768 312.812 282.888 313.064 283.126 313.239C283.369 313.409 283.675 313.494 284.047 313.494ZM290.146 315V306.273H292.567V315H290.146ZM291.362 305.148C291.002 305.148 290.693 305.028 290.436 304.79C290.182 304.547 290.055 304.258 290.055 303.92C290.055 303.587 290.182 303.301 290.436 303.062C290.693 302.82 291.002 302.699 291.362 302.699C291.722 302.699 292.029 302.82 292.282 303.062C292.54 303.301 292.669 303.587 292.669 303.92C292.669 304.258 292.54 304.547 292.282 304.79C292.029 305.028 291.722 305.148 291.362 305.148ZM296.926 303.364V315H294.505V303.364H296.926ZM300.28 315.148C299.905 315.148 299.583 315.015 299.314 314.75C299.049 314.481 298.916 314.159 298.916 313.784C298.916 313.413 299.049 313.095 299.314 312.83C299.583 312.564 299.905 312.432 300.28 312.432C300.643 312.432 300.961 312.564 301.234 312.83C301.507 313.095 301.643 313.413 301.643 313.784C301.643 314.034 301.579 314.263 301.45 314.472C301.325 314.676 301.16 314.841 300.956 314.966C300.751 315.087 300.526 315.148 300.28 315.148ZM307.574 315.17C306.68 315.17 305.911 314.981 305.267 314.602C304.627 314.22 304.134 313.689 303.79 313.011C303.449 312.333 303.278 311.553 303.278 310.67C303.278 309.777 303.451 308.992 303.795 308.318C304.144 307.64 304.638 307.112 305.278 306.733C305.918 306.35 306.68 306.159 307.562 306.159C308.324 306.159 308.99 306.297 309.562 306.574C310.134 306.85 310.587 307.239 310.92 307.739C311.254 308.239 311.437 308.826 311.471 309.5H309.187C309.123 309.064 308.952 308.714 308.676 308.449C308.403 308.18 308.045 308.045 307.602 308.045C307.227 308.045 306.899 308.148 306.619 308.352C306.343 308.553 306.127 308.847 305.971 309.233C305.816 309.619 305.738 310.087 305.738 310.636C305.738 311.193 305.814 311.667 305.966 312.057C306.121 312.447 306.339 312.744 306.619 312.949C306.899 313.153 307.227 313.256 307.602 313.256C307.879 313.256 308.127 313.199 308.346 313.085C308.57 312.972 308.754 312.807 308.897 312.591C309.045 312.371 309.142 312.108 309.187 311.801H311.471C311.433 312.468 311.252 313.055 310.926 313.562C310.604 314.066 310.159 314.46 309.591 314.744C309.022 315.028 308.35 315.17 307.574 315.17Z" fill="#9F9F9F" fill-opacity="0.2"/>
<path d="M203.649 318.182H312.062V319.273H203.649V318.182Z" fill="#9F9F9F" fill-opacity="0.2"/>
<a href="mailto:user@gmail.c">
<rect fill="black" fill-opacity="0" y="-0.181818" width="108.413" height="19.3636"/>
</a>
<path d="M0.920455 180V178.557L5.19318 173.267V173.205H1.06818V171.273H8.10795V172.847L4.09659 178.006V178.068H8.25568V180H0.920455ZM13.0724 180.142C12.4096 180.142 11.8092 179.972 11.2713 179.631C10.7372 179.286 10.313 178.78 9.99858 178.114C9.68797 177.443 9.53267 176.621 9.53267 175.648C9.53267 174.648 9.69366 173.816 10.0156 173.153C10.3376 172.487 10.7656 171.989 11.2997 171.659C11.8376 171.326 12.4266 171.159 13.0668 171.159C13.5554 171.159 13.9626 171.242 14.2884 171.409C14.6179 171.572 14.883 171.777 15.0838 172.023C15.2884 172.265 15.4437 172.504 15.5497 172.739H15.6236V168.364H18.0384V180H15.652V178.602H15.5497C15.4361 178.845 15.2751 179.085 15.0668 179.324C14.8622 179.559 14.5952 179.754 14.2656 179.909C13.9399 180.064 13.5421 180.142 13.0724 180.142ZM13.8395 178.216C14.2296 178.216 14.5592 178.11 14.8281 177.898C15.1009 177.682 15.3092 177.381 15.4531 176.994C15.6009 176.608 15.6747 176.155 15.6747 175.636C15.6747 175.117 15.6027 174.667 15.4588 174.284C15.3149 173.902 15.1065 173.606 14.8338 173.398C14.5611 173.189 14.2296 173.085 13.8395 173.085C13.4418 173.085 13.1065 173.193 12.8338 173.409C12.5611 173.625 12.3546 173.924 12.2145 174.307C12.0743 174.689 12.0043 175.133 12.0043 175.636C12.0043 176.144 12.0743 176.593 12.2145 176.983C12.3584 177.369 12.5649 177.672 12.8338 177.892C13.1065 178.108 13.4418 178.216 13.8395 178.216ZM27.6477 183.352C26.4394 183.352 25.3636 183.188 24.4205 182.858C23.4773 182.532 22.6799 182.053 22.0284 181.42C21.3769 180.792 20.8807 180.023 20.5398 179.114C20.1989 178.205 20.0284 177.17 20.0284 176.011C20.0284 174.867 20.1989 173.83 20.5398 172.898C20.8845 171.966 21.3864 171.167 22.0455 170.5C22.7045 169.83 23.5095 169.314 24.4602 168.955C25.4148 168.595 26.5019 168.415 27.7216 168.415C28.8504 168.415 29.858 168.58 30.7443 168.909C31.6345 169.239 32.3883 169.708 33.0057 170.318C33.6269 170.924 34.0985 171.646 34.4205 172.483C34.7462 173.316 34.9072 174.239 34.9034 175.25C34.9072 175.947 34.8466 176.587 34.7216 177.17C34.5966 177.754 34.3996 178.263 34.1307 178.699C33.8655 179.131 33.517 179.473 33.0852 179.727C32.6534 179.977 32.1307 180.119 31.517 180.153C31.0777 180.188 30.7216 180.155 30.4489 180.057C30.1761 179.958 29.9678 179.812 29.8239 179.619C29.6837 179.422 29.5928 179.193 29.5511 178.932H29.483C29.392 179.159 29.214 179.366 28.9489 179.551C28.6837 179.733 28.3598 179.875 27.9773 179.977C27.5985 180.076 27.1951 180.112 26.767 180.085C26.3201 180.059 25.8958 179.955 25.4943 179.773C25.0966 179.591 24.7424 179.328 24.4318 178.983C24.125 178.638 23.8826 178.212 23.7045 177.705C23.5303 177.197 23.4413 176.61 23.4375 175.943C23.4413 175.284 23.5341 174.71 23.7159 174.222C23.9015 173.733 24.1458 173.322 24.4489 172.989C24.7557 172.655 25.0966 172.394 25.4716 172.205C25.8466 172.015 26.2235 171.894 26.6023 171.841C27.0303 171.777 27.4356 171.777 27.8182 171.841C28.2008 171.905 28.5227 172.009 28.7841 172.153C29.0492 172.297 29.214 172.453 29.2784 172.619H29.358V171.983H31.1364V177.528C31.1402 177.79 31.1989 177.992 31.3125 178.136C31.4261 178.28 31.5795 178.352 31.7727 178.352C32.0341 178.352 32.2519 178.237 32.4261 178.006C32.6042 177.775 32.7367 177.42 32.8239 176.943C32.9148 176.466 32.9602 175.858 32.9602 175.119C32.9602 174.407 32.8655 173.782 32.6761 173.244C32.4905 172.703 32.2292 172.242 31.892 171.864C31.5587 171.481 31.1705 171.17 30.7273 170.932C30.2841 170.693 29.803 170.519 29.2841 170.409C28.7689 170.299 28.2386 170.244 27.6932 170.244C26.75 170.244 25.9261 170.388 25.2216 170.676C24.517 170.96 23.9299 171.36 23.4602 171.875C22.9905 172.39 22.6383 172.994 22.4034 173.688C22.1723 174.377 22.0549 175.129 22.0511 175.943C22.0549 176.841 22.1799 177.636 22.4261 178.33C22.6761 179.019 23.0436 179.598 23.5284 180.068C24.0133 180.538 24.6117 180.894 25.3239 181.136C26.036 181.379 26.8542 181.5 27.7784 181.5C28.214 181.5 28.6402 181.468 29.0568 181.403C29.4735 181.343 29.8504 181.267 30.1875 181.176C30.5246 181.089 30.7955 181.004 31 180.92L31.5625 182.568C31.3239 182.705 31 182.831 30.5909 182.949C30.1856 183.07 29.7273 183.167 29.2159 183.239C28.7083 183.314 28.1856 183.352 27.6477 183.352ZM27.3864 178.216C27.8485 178.216 28.2159 178.127 28.4886 177.949C28.7652 177.771 28.9621 177.508 29.0795 177.159C29.2008 176.807 29.2576 176.373 29.25 175.858C29.2462 175.403 29.1875 175.019 29.0739 174.705C28.964 174.386 28.7727 174.146 28.5 173.983C28.2311 173.816 27.8561 173.733 27.375 173.733C26.9545 173.733 26.5966 173.822 26.3011 174C26.0095 174.178 25.786 174.428 25.6307 174.75C25.4792 175.068 25.4015 175.443 25.3977 175.875C25.4015 176.277 25.4659 176.657 25.5909 177.017C25.7159 177.373 25.9223 177.663 26.2102 177.886C26.4981 178.106 26.8902 178.216 27.3864 178.216ZM40.4446 183.455C39.6605 183.455 38.9882 183.347 38.4276 183.131C37.8707 182.919 37.4276 182.629 37.098 182.261C36.7685 181.894 36.5545 181.481 36.456 181.023L38.6946 180.722C38.7628 180.896 38.8707 181.059 39.0185 181.21C39.1662 181.362 39.3613 181.483 39.6037 181.574C39.8499 181.669 40.1491 181.716 40.5014 181.716C41.0279 181.716 41.4616 181.587 41.8026 181.33C42.1473 181.076 42.3196 180.65 42.3196 180.051V178.455H42.2173C42.1113 178.697 41.9522 178.926 41.7401 179.142C41.5279 179.358 41.2552 179.534 40.9219 179.67C40.5885 179.807 40.1908 179.875 39.7287 179.875C39.0734 179.875 38.4768 179.723 37.9389 179.42C37.4048 179.114 36.9787 178.646 36.6605 178.017C36.3461 177.384 36.1889 176.585 36.1889 175.619C36.1889 174.631 36.3499 173.805 36.6719 173.142C36.9938 172.479 37.4219 171.983 37.956 171.653C38.4938 171.324 39.0829 171.159 39.723 171.159C40.2116 171.159 40.6207 171.242 40.9503 171.409C41.2798 171.572 41.545 171.777 41.7457 172.023C41.9503 172.265 42.1075 172.504 42.2173 172.739H42.3082V171.273H44.7116V180.085C44.7116 180.828 44.5298 181.449 44.1662 181.949C43.8026 182.449 43.2988 182.824 42.6548 183.074C42.0147 183.328 41.2779 183.455 40.4446 183.455ZM40.4957 178.057C40.8859 178.057 41.2154 177.96 41.4844 177.767C41.7571 177.57 41.9654 177.29 42.1094 176.926C42.2571 176.559 42.331 176.119 42.331 175.608C42.331 175.097 42.259 174.653 42.1151 174.278C41.9711 173.9 41.7628 173.606 41.4901 173.398C41.2173 173.189 40.8859 173.085 40.4957 173.085C40.098 173.085 39.7628 173.193 39.4901 173.409C39.2173 173.621 39.0109 173.917 38.8707 174.295C38.7306 174.674 38.6605 175.112 38.6605 175.608C38.6605 176.112 38.7306 176.547 38.8707 176.915C39.0147 177.278 39.2211 177.561 39.4901 177.761C39.7628 177.958 40.098 178.057 40.4957 178.057ZM46.6378 180V171.273H48.9446V172.812H49.0469C49.2287 172.301 49.5317 171.898 49.956 171.602C50.3802 171.307 50.8878 171.159 51.4787 171.159C52.0772 171.159 52.5866 171.309 53.0071 171.608C53.4276 171.903 53.7079 172.305 53.848 172.812H53.9389C54.117 172.312 54.4389 171.913 54.9048 171.614C55.3745 171.311 55.9295 171.159 56.5696 171.159C57.384 171.159 58.045 171.419 58.5526 171.938C59.0639 172.453 59.3196 173.184 59.3196 174.131V180H56.9048V174.608C56.9048 174.123 56.776 173.759 56.5185 173.517C56.2609 173.275 55.9389 173.153 55.5526 173.153C55.1132 173.153 54.7704 173.294 54.5241 173.574C54.2779 173.85 54.1548 174.216 54.1548 174.67V180H51.8082V174.557C51.8082 174.129 51.6851 173.788 51.4389 173.534C51.1965 173.28 50.8764 173.153 50.4787 173.153C50.2098 173.153 49.9673 173.222 49.7514 173.358C49.5393 173.491 49.3707 173.678 49.2457 173.92C49.1207 174.159 49.0582 174.439 49.0582 174.761V180H46.6378ZM63.7202 180.165C63.1634 180.165 62.6671 180.068 62.2315 179.875C61.7959 179.678 61.4512 179.388 61.1974 179.006C60.9474 178.619 60.8224 178.138 60.8224 177.562C60.8224 177.078 60.9115 176.67 61.0895 176.341C61.2675 176.011 61.5099 175.746 61.8168 175.545C62.1236 175.345 62.4721 175.193 62.8622 175.091C63.2562 174.989 63.669 174.917 64.1009 174.875C64.6084 174.822 65.0175 174.773 65.3281 174.727C65.6387 174.678 65.8641 174.606 66.0043 174.511C66.1444 174.417 66.2145 174.277 66.2145 174.091V174.057C66.2145 173.697 66.1009 173.419 65.8736 173.222C65.6501 173.025 65.3319 172.926 64.919 172.926C64.4834 172.926 64.1368 173.023 63.8793 173.216C63.6217 173.405 63.4512 173.644 63.3679 173.932L61.1293 173.75C61.2429 173.22 61.4664 172.761 61.7997 172.375C62.133 171.985 62.563 171.686 63.0895 171.477C63.6198 171.265 64.2334 171.159 64.9304 171.159C65.4152 171.159 65.8793 171.216 66.3224 171.33C66.7694 171.443 67.1652 171.619 67.5099 171.858C67.8584 172.097 68.133 172.403 68.3338 172.778C68.5346 173.15 68.6349 173.595 68.6349 174.114V180H66.3395V178.79H66.2713C66.1312 179.062 65.9437 179.303 65.7088 179.511C65.474 179.716 65.1918 179.877 64.8622 179.994C64.5327 180.108 64.152 180.165 63.7202 180.165ZM64.4134 178.494C64.7694 178.494 65.0838 178.424 65.3565 178.284C65.6293 178.14 65.8433 177.947 65.9986 177.705C66.1539 177.462 66.2315 177.187 66.2315 176.881V175.955C66.1558 176.004 66.0516 176.049 65.919 176.091C65.7902 176.129 65.6444 176.165 65.4815 176.199C65.3187 176.229 65.1558 176.258 64.9929 176.284C64.83 176.307 64.6823 176.328 64.5497 176.347C64.2656 176.388 64.0175 176.455 63.8054 176.545C63.5933 176.636 63.4285 176.759 63.3111 176.915C63.1937 177.066 63.1349 177.256 63.1349 177.483C63.1349 177.812 63.2543 178.064 63.4929 178.239C63.7353 178.409 64.0421 178.494 64.4134 178.494ZM70.5128 180V171.273H72.9332V180H70.5128ZM71.7287 170.148C71.3688 170.148 71.0601 170.028 70.8026 169.79C70.5488 169.547 70.4219 169.258 70.4219 168.92C70.4219 168.587 70.5488 168.301 70.8026 168.062C71.0601 167.82 71.3688 167.699 71.7287 167.699C72.0885 167.699 72.3954 167.82 72.6491 168.062C72.9067 168.301 73.0355 168.587 73.0355 168.92C73.0355 169.258 72.9067 169.547 72.6491 169.79C72.3954 170.028 72.0885 170.148 71.7287 170.148ZM77.2926 168.364V180H74.8722V168.364H77.2926ZM80.6463 180.148C80.2713 180.148 79.9493 180.015 79.6804 179.75C79.4152 179.481 79.2827 179.159 79.2827 178.784C79.2827 178.413 79.4152 178.095 79.6804 177.83C79.9493 177.564 80.2713 177.432 80.6463 177.432C81.0099 177.432 81.3281 177.564 81.6009 177.83C81.8736 178.095 82.0099 178.413 82.0099 178.784C82.0099 179.034 81.9455 179.263 81.8168 179.472C81.6918 179.676 81.527 179.841 81.3224 179.966C81.1179 180.087 80.8925 180.148 80.6463 180.148ZM87.9403 180.17C87.0464 180.17 86.2775 179.981 85.6335 179.602C84.9934 179.22 84.5009 178.689 84.1562 178.011C83.8153 177.333 83.6449 176.553 83.6449 175.67C83.6449 174.777 83.8172 173.992 84.1619 173.318C84.5104 172.64 85.0047 172.112 85.6449 171.733C86.285 171.35 87.0464 171.159 87.929 171.159C88.6903 171.159 89.357 171.297 89.929 171.574C90.5009 171.85 90.9536 172.239 91.2869 172.739C91.6203 173.239 91.804 173.826 91.8381 174.5H89.554C89.4896 174.064 89.3191 173.714 89.0426 173.449C88.7699 173.18 88.4119 173.045 87.9688 173.045C87.5938 173.045 87.2661 173.148 86.9858 173.352C86.7093 173.553 86.4934 173.847 86.3381 174.233C86.1828 174.619 86.1051 175.087 86.1051 175.636C86.1051 176.193 86.1809 176.667 86.3324 177.057C86.4877 177.447 86.7055 177.744 86.9858 177.949C87.2661 178.153 87.5938 178.256 87.9688 178.256C88.2453 178.256 88.4934 178.199 88.7131 178.085C88.9366 177.972 89.1203 177.807 89.2642 177.591C89.4119 177.371 89.5085 177.108 89.554 176.801H91.8381C91.8002 177.468 91.6184 178.055 91.2926 178.562C90.9706 179.066 90.5256 179.46 89.9574 179.744C89.3892 180.028 88.7169 180.17 87.9403 180.17ZM97.331 180.17C96.4484 180.17 95.6851 179.983 95.0412 179.608C94.401 179.229 93.9067 178.703 93.5582 178.028C93.2098 177.35 93.0355 176.564 93.0355 175.67C93.0355 174.769 93.2098 173.981 93.5582 173.307C93.9067 172.629 94.401 172.102 95.0412 171.727C95.6851 171.348 96.4484 171.159 97.331 171.159C98.2135 171.159 98.9749 171.348 99.6151 171.727C100.259 172.102 100.755 172.629 101.104 173.307C101.452 173.981 101.626 174.769 101.626 175.67C101.626 176.564 101.452 177.35 101.104 178.028C100.755 178.703 100.259 179.229 99.6151 179.608C98.9749 179.983 98.2135 180.17 97.331 180.17ZM97.3423 178.295C97.7438 178.295 98.0791 178.182 98.348 177.955C98.617 177.723 98.8196 177.409 98.956 177.011C99.0961 176.614 99.1662 176.161 99.1662 175.653C99.1662 175.146 99.0961 174.693 98.956 174.295C98.8196 173.898 98.617 173.583 98.348 173.352C98.0791 173.121 97.7438 173.006 97.3423 173.006C96.937 173.006 96.5961 173.121 96.3196 173.352C96.0469 173.583 95.8404 173.898 95.7003 174.295C95.5639 174.693 95.4957 175.146 95.4957 175.653C95.4957 176.161 95.5639 176.614 95.7003 177.011C95.8404 177.409 96.0469 177.723 96.3196 177.955C96.5961 178.182 96.937 178.295 97.3423 178.295ZM103.2 180V171.273H105.507V172.812H105.609C105.791 172.301 106.094 171.898 106.518 171.602C106.943 171.307 107.45 171.159 108.041 171.159C108.64 171.159 109.149 171.309 109.57 171.608C109.99 171.903 110.27 172.305 110.411 172.812H110.501C110.679 172.312 111.001 171.913 111.467 171.614C111.937 171.311 112.492 171.159 113.132 171.159C113.946 171.159 114.607 171.419 115.115 171.938C115.626 172.453 115.882 173.184 115.882 174.131V180H113.467V174.608C113.467 174.123 113.339 173.759 113.081 173.517C112.823 173.275 112.501 173.153 112.115 173.153C111.676 173.153 111.333 173.294 111.087 173.574C110.84 173.85 110.717 174.216 110.717 174.67V180H108.371V174.557C108.371 174.129 108.248 173.788 108.001 173.534C107.759 173.28 107.439 173.153 107.041 173.153C106.772 173.153 106.53 173.222 106.314 173.358C106.102 173.491 105.933 173.678 105.808 173.92C105.683 174.159 105.621 174.439 105.621 174.761V180H103.2Z" fill="#9B9B9B" fill-opacity="0.2"/>
<path d="M0 183.182H116.825V184.273H0V183.182Z" fill="#9B9B9B" fill-opacity="0.2"/>
<a href="mailto:zd@gmail.com">
<rect fill="black" fill-opacity="0" y="-0.181818" width="116.825" height="19.3636"/>
</a>
<path d="M210.211 175.284V170.273H212.632V179H210.308V177.415H210.217C210.02 177.926 209.692 178.337 209.234 178.648C208.78 178.958 208.225 179.114 207.569 179.114C206.986 179.114 206.473 178.981 206.03 178.716C205.586 178.451 205.24 178.074 204.99 177.585C204.744 177.097 204.619 176.511 204.615 175.83V170.273H207.035V175.398C207.039 175.913 207.177 176.32 207.45 176.619C207.723 176.919 208.088 177.068 208.547 177.068C208.838 177.068 209.111 177.002 209.365 176.869C209.619 176.733 209.823 176.532 209.978 176.267C210.138 176.002 210.215 175.674 210.211 175.284ZM221.829 172.761L219.613 172.898C219.576 172.708 219.494 172.538 219.369 172.386C219.244 172.231 219.079 172.108 218.875 172.017C218.674 171.922 218.433 171.875 218.153 171.875C217.778 171.875 217.462 171.955 217.204 172.114C216.947 172.269 216.818 172.477 216.818 172.739C216.818 172.947 216.901 173.123 217.068 173.267C217.235 173.411 217.521 173.527 217.926 173.614L219.505 173.932C220.354 174.106 220.986 174.386 221.403 174.773C221.82 175.159 222.028 175.667 222.028 176.295C222.028 176.867 221.86 177.369 221.522 177.801C221.189 178.233 220.731 178.57 220.147 178.812C219.568 179.051 218.899 179.17 218.142 179.17C216.986 179.17 216.066 178.93 215.38 178.449C214.699 177.964 214.299 177.305 214.182 176.472L216.562 176.347C216.634 176.699 216.808 176.968 217.085 177.153C217.361 177.335 217.716 177.426 218.147 177.426C218.572 177.426 218.913 177.345 219.17 177.182C219.432 177.015 219.564 176.801 219.568 176.54C219.564 176.32 219.471 176.14 219.29 176C219.108 175.856 218.827 175.746 218.449 175.67L216.937 175.369C216.085 175.199 215.451 174.903 215.034 174.483C214.621 174.062 214.415 173.527 214.415 172.875C214.415 172.314 214.566 171.831 214.869 171.426C215.176 171.021 215.606 170.708 216.159 170.489C216.716 170.269 217.367 170.159 218.113 170.159C219.216 170.159 220.083 170.392 220.716 170.858C221.352 171.324 221.723 171.958 221.829 172.761ZM227.53 179.17C226.632 179.17 225.859 178.989 225.211 178.625C224.567 178.258 224.071 177.739 223.723 177.068C223.374 176.394 223.2 175.597 223.2 174.676C223.2 173.778 223.374 172.991 223.723 172.312C224.071 171.634 224.562 171.106 225.194 170.727C225.831 170.348 226.577 170.159 227.433 170.159C228.009 170.159 228.545 170.252 229.041 170.438C229.541 170.619 229.977 170.894 230.348 171.261C230.723 171.629 231.014 172.091 231.223 172.648C231.431 173.201 231.535 173.848 231.535 174.591V175.256H224.166V173.756H229.257C229.257 173.407 229.181 173.098 229.03 172.83C228.878 172.561 228.668 172.35 228.399 172.199C228.134 172.044 227.825 171.966 227.473 171.966C227.105 171.966 226.78 172.051 226.495 172.222C226.215 172.388 225.995 172.614 225.836 172.898C225.677 173.178 225.596 173.491 225.592 173.835V175.261C225.592 175.693 225.672 176.066 225.831 176.381C225.994 176.695 226.223 176.938 226.518 177.108C226.814 177.278 227.164 177.364 227.569 177.364C227.838 177.364 228.085 177.326 228.308 177.25C228.531 177.174 228.723 177.061 228.882 176.909C229.041 176.758 229.162 176.572 229.245 176.352L231.484 176.5C231.37 177.038 231.138 177.508 230.785 177.909C230.437 178.307 229.986 178.617 229.433 178.841C228.884 179.061 228.249 179.17 227.53 179.17ZM233.115 179V170.273H235.461V171.795H235.552C235.711 171.254 235.978 170.845 236.353 170.568C236.728 170.288 237.16 170.148 237.649 170.148C237.77 170.148 237.901 170.155 238.041 170.17C238.181 170.186 238.304 170.206 238.41 170.233V172.381C238.297 172.347 238.139 172.316 237.939 172.29C237.738 172.263 237.554 172.25 237.388 172.25C237.031 172.25 236.713 172.328 236.433 172.483C236.156 172.634 235.937 172.847 235.774 173.119C235.615 173.392 235.535 173.706 235.535 174.062V179H233.115ZM247.281 182.352C246.073 182.352 244.997 182.188 244.054 181.858C243.111 181.532 242.313 181.053 241.662 180.42C241.01 179.792 240.514 179.023 240.173 178.114C239.832 177.205 239.662 176.17 239.662 175.011C239.662 173.867 239.832 172.83 240.173 171.898C240.518 170.966 241.02 170.167 241.679 169.5C242.338 168.83 243.143 168.314 244.093 167.955C245.048 167.595 246.135 167.415 247.355 167.415C248.484 167.415 249.491 167.58 250.378 167.909C251.268 168.239 252.022 168.708 252.639 169.318C253.26 169.924 253.732 170.646 254.054 171.483C254.379 172.316 254.54 173.239 254.537 174.25C254.54 174.947 254.48 175.587 254.355 176.17C254.23 176.754 254.033 177.263 253.764 177.699C253.499 178.131 253.15 178.473 252.718 178.727C252.287 178.977 251.764 179.119 251.15 179.153C250.711 179.188 250.355 179.155 250.082 179.057C249.809 178.958 249.601 178.812 249.457 178.619C249.317 178.422 249.226 178.193 249.184 177.932H249.116C249.025 178.159 248.847 178.366 248.582 178.551C248.317 178.733 247.993 178.875 247.611 178.977C247.232 179.076 246.828 179.112 246.4 179.085C245.953 179.059 245.529 178.955 245.128 178.773C244.73 178.591 244.376 178.328 244.065 177.983C243.758 177.638 243.516 177.212 243.338 176.705C243.164 176.197 243.075 175.61 243.071 174.943C243.075 174.284 243.167 173.71 243.349 173.222C243.535 172.733 243.779 172.322 244.082 171.989C244.389 171.655 244.73 171.394 245.105 171.205C245.48 171.015 245.857 170.894 246.236 170.841C246.664 170.777 247.069 170.777 247.451 170.841C247.834 170.905 248.156 171.009 248.417 171.153C248.683 171.297 248.847 171.453 248.912 171.619H248.991V170.983H250.77V176.528C250.773 176.79 250.832 176.992 250.946 177.136C251.059 177.28 251.213 177.352 251.406 177.352C251.667 177.352 251.885 177.237 252.059 177.006C252.237 176.775 252.37 176.42 252.457 175.943C252.548 175.466 252.593 174.858 252.593 174.119C252.593 173.407 252.499 172.782 252.309 172.244C252.124 171.703 251.862 171.242 251.525 170.864C251.192 170.481 250.804 170.17 250.361 169.932C249.917 169.693 249.436 169.519 248.917 169.409C248.402 169.299 247.872 169.244 247.326 169.244C246.383 169.244 245.559 169.388 244.855 169.676C244.15 169.96 243.563 170.36 243.093 170.875C242.624 171.39 242.272 171.994 242.037 172.688C241.806 173.377 241.688 174.129 241.684 174.943C241.688 175.841 241.813 176.636 242.059 177.33C242.309 178.019 242.677 178.598 243.162 179.068C243.647 179.538 244.245 179.894 244.957 180.136C245.669 180.379 246.487 180.5 247.412 180.5C247.847 180.5 248.273 180.468 248.69 180.403C249.107 180.343 249.484 180.267 249.821 180.176C250.158 180.089 250.429 180.004 250.633 179.92L251.196 181.568C250.957 181.705 250.633 181.831 250.224 181.949C249.819 182.07 249.361 182.167 248.849 182.239C248.342 182.314 247.819 182.352 247.281 182.352ZM247.02 177.216C247.482 177.216 247.849 177.127 248.122 176.949C248.398 176.771 248.595 176.508 248.713 176.159C248.834 175.807 248.891 175.373 248.883 174.858C248.879 174.403 248.821 174.019 248.707 173.705C248.597 173.386 248.406 173.146 248.133 172.983C247.864 172.816 247.489 172.733 247.008 172.733C246.588 172.733 246.23 172.822 245.934 173C245.643 173.178 245.419 173.428 245.264 173.75C245.112 174.068 245.035 174.443 245.031 174.875C245.035 175.277 245.099 175.657 245.224 176.017C245.349 176.373 245.556 176.663 245.843 176.886C246.131 177.106 246.523 177.216 247.02 177.216ZM260.078 182.455C259.294 182.455 258.621 182.347 258.061 182.131C257.504 181.919 257.061 181.629 256.731 181.261C256.402 180.894 256.188 180.481 256.089 180.023L258.328 179.722C258.396 179.896 258.504 180.059 258.652 180.21C258.799 180.362 258.995 180.483 259.237 180.574C259.483 180.669 259.782 180.716 260.135 180.716C260.661 180.716 261.095 180.587 261.436 180.33C261.781 180.076 261.953 179.65 261.953 179.051V177.455H261.851C261.745 177.697 261.585 177.926 261.373 178.142C261.161 178.358 260.888 178.534 260.555 178.67C260.222 178.807 259.824 178.875 259.362 178.875C258.707 178.875 258.11 178.723 257.572 178.42C257.038 178.114 256.612 177.646 256.294 177.017C255.979 176.384 255.822 175.585 255.822 174.619C255.822 173.631 255.983 172.805 256.305 172.142C256.627 171.479 257.055 170.983 257.589 170.653C258.127 170.324 258.716 170.159 259.356 170.159C259.845 170.159 260.254 170.242 260.584 170.409C260.913 170.572 261.178 170.777 261.379 171.023C261.584 171.265 261.741 171.504 261.851 171.739H261.942V170.273H264.345V179.085C264.345 179.828 264.163 180.449 263.799 180.949C263.436 181.449 262.932 181.824 262.288 182.074C261.648 182.328 260.911 182.455 260.078 182.455ZM260.129 177.057C260.519 177.057 260.849 176.96 261.118 176.767C261.39 176.57 261.599 176.29 261.743 175.926C261.89 175.559 261.964 175.119 261.964 174.608C261.964 174.097 261.892 173.653 261.748 173.278C261.604 172.9 261.396 172.606 261.123 172.398C260.851 172.189 260.519 172.085 260.129 172.085C259.731 172.085 259.396 172.193 259.123 172.409C258.851 172.621 258.644 172.917 258.504 173.295C258.364 173.674 258.294 174.112 258.294 174.608C258.294 175.112 258.364 175.547 258.504 175.915C258.648 176.278 258.854 176.561 259.123 176.761C259.396 176.958 259.731 177.057 260.129 177.057ZM266.271 179V170.273H268.578V171.812H268.68C268.862 171.301 269.165 170.898 269.589 170.602C270.013 170.307 270.521 170.159 271.112 170.159C271.71 170.159 272.22 170.309 272.64 170.608C273.061 170.903 273.341 171.305 273.481 171.812H273.572C273.75 171.312 274.072 170.913 274.538 170.614C275.008 170.311 275.563 170.159 276.203 170.159C277.017 170.159 277.678 170.419 278.186 170.938C278.697 171.453 278.953 172.184 278.953 173.131V179H276.538V173.608C276.538 173.123 276.409 172.759 276.152 172.517C275.894 172.275 275.572 172.153 275.186 172.153C274.746 172.153 274.404 172.294 274.157 172.574C273.911 172.85 273.788 173.216 273.788 173.67V179H271.442V173.557C271.442 173.129 271.318 172.788 271.072 172.534C270.83 172.28 270.51 172.153 270.112 172.153C269.843 172.153 269.601 172.222 269.385 172.358C269.173 172.491 269.004 172.678 268.879 172.92C268.754 173.159 268.692 173.439 268.692 173.761V179H266.271ZM283.353 179.165C282.797 179.165 282.3 179.068 281.865 178.875C281.429 178.678 281.085 178.388 280.831 178.006C280.581 177.619 280.456 177.138 280.456 176.562C280.456 176.078 280.545 175.67 280.723 175.341C280.901 175.011 281.143 174.746 281.45 174.545C281.757 174.345 282.105 174.193 282.495 174.091C282.889 173.989 283.302 173.917 283.734 173.875C284.242 173.822 284.651 173.773 284.961 173.727C285.272 173.678 285.497 173.606 285.638 173.511C285.778 173.417 285.848 173.277 285.848 173.091V173.057C285.848 172.697 285.734 172.419 285.507 172.222C285.283 172.025 284.965 171.926 284.552 171.926C284.117 171.926 283.77 172.023 283.513 172.216C283.255 172.405 283.085 172.644 283.001 172.932L280.763 172.75C280.876 172.22 281.1 171.761 281.433 171.375C281.766 170.985 282.196 170.686 282.723 170.477C283.253 170.265 283.867 170.159 284.564 170.159C285.049 170.159 285.513 170.216 285.956 170.33C286.403 170.443 286.799 170.619 287.143 170.858C287.492 171.097 287.766 171.403 287.967 171.778C288.168 172.15 288.268 172.595 288.268 173.114V179H285.973V177.79H285.905C285.764 178.062 285.577 178.303 285.342 178.511C285.107 178.716 284.825 178.877 284.495 178.994C284.166 179.108 283.785 179.165 283.353 179.165ZM284.047 177.494C284.403 177.494 284.717 177.424 284.99 177.284C285.263 177.14 285.477 176.947 285.632 176.705C285.787 176.462 285.865 176.187 285.865 175.881V174.955C285.789 175.004 285.685 175.049 285.552 175.091C285.424 175.129 285.278 175.165 285.115 175.199C284.952 175.229 284.789 175.258 284.626 175.284C284.463 175.307 284.316 175.328 284.183 175.347C283.899 175.388 283.651 175.455 283.439 175.545C283.227 175.636 283.062 175.759 282.944 175.915C282.827 176.066 282.768 176.256 282.768 176.483C282.768 176.812 282.888 177.064 283.126 177.239C283.369 177.409 283.675 177.494 284.047 177.494ZM290.146 179V170.273H292.567V179H290.146ZM291.362 169.148C291.002 169.148 290.693 169.028 290.436 168.79C290.182 168.547 290.055 168.258 290.055 167.92C290.055 167.587 290.182 167.301 290.436 167.062C290.693 166.82 291.002 166.699 291.362 166.699C291.722 166.699 292.029 166.82 292.282 167.062C292.54 167.301 292.669 167.587 292.669 167.92C292.669 168.258 292.54 168.547 292.282 168.79C292.029 169.028 291.722 169.148 291.362 169.148ZM296.926 167.364V179H294.505V167.364H296.926ZM300.28 179.148C299.905 179.148 299.583 179.015 299.314 178.75C299.049 178.481 298.916 178.159 298.916 177.784C298.916 177.413 299.049 177.095 299.314 176.83C299.583 176.564 299.905 176.432 300.28 176.432C300.643 176.432 300.961 176.564 301.234 176.83C301.507 177.095 301.643 177.413 301.643 177.784C301.643 178.034 301.579 178.263 301.45 178.472C301.325 178.676 301.16 178.841 300.956 178.966C300.751 179.087 300.526 179.148 300.28 179.148ZM307.574 179.17C306.68 179.17 305.911 178.981 305.267 178.602C304.627 178.22 304.134 177.689 303.79 177.011C303.449 176.333 303.278 175.553 303.278 174.67C303.278 173.777 303.451 172.992 303.795 172.318C304.144 171.64 304.638 171.112 305.278 170.733C305.918 170.35 306.68 170.159 307.562 170.159C308.324 170.159 308.99 170.297 309.562 170.574C310.134 170.85 310.587 171.239 310.92 171.739C311.254 172.239 311.437 172.826 311.471 173.5H309.187C309.123 173.064 308.952 172.714 308.676 172.449C308.403 172.18 308.045 172.045 307.602 172.045C307.227 172.045 306.899 172.148 306.619 172.352C306.343 172.553 306.127 172.847 305.971 173.233C305.816 173.619 305.738 174.087 305.738 174.636C305.738 175.193 305.814 175.667 305.966 176.057C306.121 176.447 306.339 176.744 306.619 176.949C306.899 177.153 307.227 177.256 307.602 177.256C307.879 177.256 308.127 177.199 308.346 177.085C308.57 176.972 308.754 176.807 308.897 176.591C309.045 176.371 309.142 176.108 309.187 175.801H311.471C311.433 176.468 311.252 177.055 310.926 177.562C310.604 178.066 310.159 178.46 309.591 178.744C309.022 179.028 308.35 179.17 307.574 179.17Z" fill="#A7A7A7" fill-opacity="0.2"/>
<path d="M203.649 182.182H312.062V183.273H203.649V182.182Z" fill="#A7A7A7" fill-opacity="0.2"/>
<a href="mailto:user@gmail.c">
<rect fill="black" fill-opacity="0" y="-0.181818" width="108.413" height="19.3636"/>
</a>
</svg>
