<svg width="45" height="41" viewBox="0 0 45 41" fill="none" xmlns="http://www.w3.org/2000/svg">
<g clip-path="url(#clip0_303_500)">
<path d="M44.9844 20.46C44.9844 21.9014 43.8125 23.0305 42.4844 23.0305H39.9844L40.0391 35.859C40.0391 36.0752 40.0234 36.2914 40 36.5076V37.7969C40 39.5666 38.6016 41 36.875 41H35.625C35.5391 41 35.4531 41 35.3672 40.992C35.2578 41 35.1484 41 35.0391 41H32.5H30.625C28.8984 41 27.5 39.5666 27.5 37.7969V35.875V30.75C27.5 29.3326 26.3828 28.1875 25 28.1875H20C18.6172 28.1875 17.5 29.3326 17.5 30.75V35.875V37.7969C17.5 39.5666 16.1016 41 14.375 41H12.5H10.0078C9.89063 41 9.77344 40.992 9.65625 40.984C9.5625 40.992 9.46875 41 9.375 41H8.125C6.39844 41 5 39.5666 5 37.7969V28.8281C5 28.7561 5 28.676 5.00781 28.6039V23.0305H2.5C1.09375 23.0305 0 21.9094 0 20.46C0 19.7393 0.234375 19.0986 0.78125 18.5381L20.8125 0.640625C21.3594 0.0800781 21.9844 0 22.5313 0C23.0781 0 23.7031 0.160156 24.1719 0.560547L44.125 18.5381C44.75 19.0986 45.0625 19.7393 44.9844 20.46Z" fill="white"/>
</g>
<defs>
<clipPath id="clip0_303_500">
<rect width="45" height="41" fill="white"/>
</clipPath>
</defs>
</svg>
