<svg width="35" height="31" viewBox="0 0 35 31" fill="none" xmlns="http://www.w3.org/2000/svg">
<path d="M12.5 3.46875C12.5 1.65723 14.1797 0.1875 16.25 0.1875H18.75C20.8203 0.1875 22.5 1.65723 22.5 3.46875V27.5312C22.5 29.3428 20.8203 30.8125 18.75 30.8125H16.25C14.1797 30.8125 12.5 29.3428 12.5 27.5312V3.46875ZM0 16.5938C0 14.7822 1.67969 13.3125 3.75 13.3125H6.25C8.32031 13.3125 10 14.7822 10 16.5938V27.5312C10 29.3428 8.32031 30.8125 6.25 30.8125H3.75C1.67969 30.8125 0 29.3428 0 27.5312V16.5938ZM28.75 4.5625H31.25C33.3203 4.5625 35 6.03223 35 7.84375V27.5312C35 29.3428 33.3203 30.8125 31.25 30.8125H28.75C26.6797 30.8125 25 29.3428 25 27.5312V7.84375C25 6.03223 26.6797 4.5625 28.75 4.5625Z" fill="white"/>
</svg>
