<svg width="31" height="40" viewBox="0 0 31 40" fill="none" xmlns="http://www.w3.org/2000/svg">
<path d="M0.55431 6.0908L4.34886 35.6916C4.47371 36.6655 5.36274 37.3168 6.32675 37.1565C6.82867 37.0731 7.28703 36.7768 7.57253 36.338L13.1862 27.7003L19.0052 36.2151C19.7963 37.3718 21.3915 37.6284 22.5694 36.7886C23.7474 35.9487 24.0608 34.3312 23.2697 33.1745L17.5889 24.8487L26.9979 23.2848C27.9699 23.1232 28.6573 22.2018 28.5325 21.2279C28.468 20.725 28.1915 20.2818 27.7741 20.0087L3.45255 4.19859C3.07108 3.95218 2.61937 3.85605 2.16525 3.93153C1.14547 4.10103 0.423322 5.06898 0.55431 6.0908Z" fill="white"/>
</svg>
