<svg width="34" height="34" viewBox="0 0 34 34" fill="none" xmlns="http://www.w3.org/2000/svg">
<path d="M31.4778 30.0387H1.76721C0.834922 30.0387 0.0791016 30.8935 0.0791016 31.9479C0.0791016 33.0023 0.834922 33.8572 1.76721 33.8572H31.4778C32.4101 33.8572 33.1659 33.0023 33.1659 31.9479C33.1659 30.8935 32.4101 30.0387 31.4778 30.0387Z" fill="white"/>
<path d="M3.512 27.2385H8.8014C9.3919 27.2385 9.87053 26.6971 9.87053 26.0293V9.48256C9.87053 8.81471 9.3919 8.27338 8.8014 8.27338H3.512C2.92151 8.27338 2.44287 8.81471 2.44287 9.48256V26.0293C2.44287 26.6971 2.92151 27.2385 3.512 27.2385Z" fill="white"/>
<path d="M13.9778 27.2384H19.2672C19.8577 27.2384 20.3364 26.6971 20.3364 26.0293V1.20918C20.3364 0.541332 19.8577 0 19.2672 0H13.9778C13.3873 0 12.9087 0.541332 12.9087 1.20918V26.0293C12.9087 26.6971 13.3873 27.2384 13.9778 27.2384Z" fill="white"/>
<path d="M24.4436 27.2385H29.733C30.3235 27.2385 30.8022 26.6971 30.8022 26.0293V12.6646C30.8022 11.9968 30.3235 11.4554 29.733 11.4554H24.4436C23.8531 11.4554 23.3745 11.9968 23.3745 12.6646V26.0293C23.3745 26.6971 23.8531 27.2385 24.4436 27.2385Z" fill="white"/>
</svg>
