<svg width="36" height="35" viewBox="0 0 36 35" fill="none" xmlns="http://www.w3.org/2000/svg">
<path d="M28.5928 14.2194C28.5928 17.3573 27.5715 20.2559 25.8511 22.6076L34.5286 31.2691C35.3854 32.1236 35.3854 33.5114 34.5286 34.3659C33.6718 35.2205 32.2804 35.2205 31.4236 34.3659L22.7461 25.7044C20.3883 27.4271 17.4821 28.4389 14.336 28.4389C6.46042 28.4389 0.0791016 22.0743 0.0791016 14.2194C0.0791016 6.36457 6.46042 0 14.336 0C22.2115 0 28.5928 6.36457 28.5928 14.2194ZM7.20753 14.7663V19.1416C7.20753 20.0508 7.94094 20.7823 8.85256 20.7823C9.76417 20.7823 10.4976 20.0508 10.4976 19.1416V14.7663C10.4976 13.8571 9.76417 13.1256 8.85256 13.1256C7.94094 13.1256 7.20753 13.8571 7.20753 14.7663ZM12.6909 8.20353V19.1416C12.6909 20.0508 13.4243 20.7823 14.336 20.7823C15.2476 20.7823 15.981 20.0508 15.981 19.1416V8.20353C15.981 7.2943 15.2476 6.56282 14.336 6.56282C13.4243 6.56282 12.6909 7.2943 12.6909 8.20353ZM18.1744 12.5787V19.1416C18.1744 20.0508 18.9078 20.7823 19.8194 20.7823C20.731 20.7823 21.4644 20.0508 21.4644 19.1416V12.5787C21.4644 11.6695 20.731 10.938 19.8194 10.938C18.9078 10.938 18.1744 11.6695 18.1744 12.5787Z" fill="white"/>
</svg>
