<svg width="38" height="37" viewBox="0 0 38 37" fill="none" xmlns="http://www.w3.org/2000/svg">
<g clip-path="url(#clip0_362_219)">
<path d="M4.71312 11.5625H32.5361C33.816 11.5625 34.8547 10.5265 34.8547 9.25C34.8547 7.9735 33.816 6.9375 32.5361 6.9375H4.71312C3.43326 6.9375 2.39453 7.9735 2.39453 9.25C2.39453 10.5265 3.43326 11.5625 4.71312 11.5625ZM32.5361 16.1875H4.71312C3.43326 16.1875 2.39453 17.2235 2.39453 18.5C2.39453 19.7765 3.43326 20.8125 4.71312 20.8125H32.5361C33.816 20.8125 34.8547 19.7765 34.8547 18.5C34.8547 17.2235 33.816 16.1875 32.5361 16.1875ZM32.5361 25.4375H4.71312C3.43326 25.4375 2.39453 26.4735 2.39453 27.75C2.39453 29.0265 3.43326 30.0625 4.71312 30.0625H32.5361C33.816 30.0625 34.8547 29.0265 34.8547 27.75C34.8547 26.4735 33.816 25.4375 32.5361 25.4375Z" fill="white"/>
</g>
<defs>
<clipPath id="clip0_362_219">
<rect width="37.0974" height="37" fill="white" transform="translate(0.0761719)"/>
</clipPath>
</defs>
</svg>
