<svg width="40" height="41" viewBox="0 0 40 41" fill="none" xmlns="http://www.w3.org/2000/svg">
<path d="M7.62148 15.8066C8.25313 13.8906 9.27852 12.0889 10.7223 10.5508C15.8492 5.05762 24.159 5.05762 29.2859 10.5508L30.6887 12.0625H27.875C26.423 12.0625 25.25 13.3193 25.25 14.875C25.25 16.4307 26.423 17.6875 27.875 17.6875H37.0215H37.0543C38.5063 17.6875 39.6793 16.4307 39.6793 14.875V5.03125C39.6793 3.47559 38.5063 2.21875 37.0543 2.21875C35.6023 2.21875 34.4293 3.47559 34.4293 5.03125V8.125L32.9938 6.57812C25.816 -1.1123 14.184 -1.1123 7.00625 6.57812C5.00469 8.72266 3.56094 11.2451 2.675 13.9434C2.19102 15.4111 2.91289 17.0107 4.27461 17.5293C5.63633 18.0479 7.1375 17.2744 7.62148 15.8154V15.8066ZM2.19922 23.4268C1.78906 23.5586 1.39531 23.7959 1.07539 24.1475C0.747266 24.499 0.525781 24.9209 0.410938 25.3779C0.386328 25.4834 0.361719 25.5977 0.345312 25.7119C0.320703 25.8613 0.3125 26.0107 0.3125 26.1602V35.9688C0.3125 37.5244 1.48555 38.7812 2.9375 38.7812C4.38945 38.7812 5.5625 37.5244 5.5625 35.9688V32.8838L7.00625 34.4219C14.184 42.1035 25.816 42.1035 32.9855 34.4219C34.9871 32.2773 36.4391 29.7549 37.325 27.0654C37.809 25.5977 37.0871 23.998 35.7254 23.4795C34.3637 22.9609 32.8625 23.7344 32.3785 25.1934C31.7469 27.1094 30.7215 28.9111 29.2777 30.4492C24.1508 35.9424 15.841 35.9424 10.7141 30.4492L10.7059 30.4404L9.30313 28.9375H12.125C13.577 28.9375 14.75 27.6807 14.75 26.125C14.75 24.5693 13.577 23.3125 12.125 23.3125H2.97031C2.83906 23.3125 2.70781 23.3213 2.57656 23.3389C2.44531 23.3564 2.32227 23.3828 2.19922 23.4268Z" fill="white"/>
</svg>
