<svg width="34" height="32" viewBox="0 0 34 32" fill="none" xmlns="http://www.w3.org/2000/svg">
<path d="M33.5179 5V8C33.5179 10.7625 26.032 13 16.7997 13C7.56741 13 0.081543 10.7625 0.081543 8V5C0.081543 2.2375 7.56741 0 16.7997 0C26.032 0 33.5179 2.2375 33.5179 5ZM29.4279 13.4187C30.9803 12.9563 32.4059 12.3625 33.5179 11.6313V18C33.5179 20.7625 26.032 23 16.7997 23C7.56741 23 0.081543 20.7625 0.081543 18V11.6313C1.1936 12.3688 2.61912 12.9563 4.17153 13.4187C7.52263 14.4187 11.9858 15 16.7997 15C21.6137 15 26.0768 14.4187 29.4279 13.4187ZM0.081543 21.6313C1.1936 22.3687 2.61912 22.9563 4.17153 23.4188C7.52263 24.4188 11.9858 25 16.7997 25C21.6137 25 26.0768 24.4188 29.4279 23.4188C30.9803 22.9563 32.4059 22.3625 33.5179 21.6313V27C33.5179 29.7625 26.032 32 16.7997 32C7.56741 32 0.081543 29.7625 0.081543 27V21.6313Z" fill="white"/>
</svg>
