<svg width="31" height="33" viewBox="0 0 31 33" fill="none" xmlns="http://www.w3.org/2000/svg">
<path d="M9.91433 9.28125V12.375H20.6568V9.28125C20.6568 6.43242 18.2532 4.125 15.2856 4.125C12.318 4.125 9.91433 6.43242 9.91433 9.28125ZM5.61733 12.375V9.28125C5.61733 4.15723 9.9479 0 15.2856 0C20.6232 0 24.9538 4.15723 24.9538 9.28125V12.375H26.028C28.3981 12.375 30.325 14.2248 30.325 16.5V28.875C30.325 31.1502 28.3981 33 26.028 33H4.54309C2.17303 33 0.246094 31.1502 0.246094 28.875V16.5C0.246094 14.2248 2.17303 12.375 4.54309 12.375H5.61733Z" fill="white"/>
</svg>
